<svg width="389" height="101" fill="none" xmlns="http://www.w3.org/2000/svg"><path d="M56.076 69.283v-28.45h-4.56v28.45h4.56zm15.94-18.828c0-2.147-.432-3.974-1.297-5.48-.864-1.507-2.008-2.65-3.43-3.431a9.235 9.235 0 00-4.644-1.213c-1.646 0-3.083.418-4.31 1.255-1.2.809-2.133 1.966-2.803 3.472-.641 1.506-.962 3.305-.962 5.397 0 2.064.32 3.863.962 5.398.67 1.506 1.604 2.677 2.803 3.514 1.227.809 2.664 1.213 4.31 1.213 1.673 0 3.221-.39 4.644-1.171 1.422-.81 2.566-1.967 3.43-3.473.865-1.534 1.297-3.36 1.297-5.48zm-4.686 0c0 1.283-.264 2.385-.794 3.306a5.381 5.381 0 01-2.134 2.05c-.865.446-1.827.67-2.887.67-.865 0-1.715-.224-2.552-.67-.837-.474-1.534-1.158-2.092-2.05-.53-.893-.795-1.995-.795-3.306 0-1.31.265-2.412.795-3.305.558-.892 1.255-1.562 2.092-2.008.837-.474 1.687-.711 2.552-.711 1.06 0 2.022.237 2.887.71.892.447 1.604 1.13 2.133 2.051.53.892.796 1.98.796 3.263zm7.526 0c0 1.953.446 3.696 1.339 5.23a9.915 9.915 0 003.723 3.556c1.562.837 3.333 1.255 5.314 1.255 1.98 0 3.737-.418 5.271-1.255a9.913 9.913 0 003.724-3.556c.92-1.534 1.38-3.277 1.38-5.23 0-1.98-.46-3.723-1.38-5.23a9.598 9.598 0 00-3.724-3.514c-1.534-.864-3.291-1.297-5.271-1.297s-3.752.432-5.314 1.297a9.6 9.6 0 00-3.723 3.515c-.893 1.506-1.34 3.249-1.34 5.23zm4.644 0c0-1.199.25-2.259.753-3.18.502-.92 1.185-1.631 2.05-2.133.865-.502 1.84-.753 2.929-.753 1.06 0 2.022.25 2.886.753a5.312 5.312 0 012.092 2.134c.503.92.754 1.98.754 3.18 0 1.199-.251 2.259-.754 3.18a5.686 5.686 0 01-2.091 2.133c-.865.502-1.827.753-2.887.753-1.088 0-2.064-.251-2.929-.753a5.789 5.789 0 01-2.05-2.134c-.502-.92-.753-1.98-.753-3.18zm32.779-2.092v11.715h4.644V47.861c0-2.315-.572-4.128-1.715-5.439-1.144-1.338-2.803-2.008-4.979-2.008-1.339 0-2.496.28-3.473.837-.948.558-1.729 1.409-2.342 2.552v-2.97h-4.519v19.245h4.519V48.363c0-.864.181-1.617.543-2.259a3.568 3.568 0 011.507-1.506c.641-.363 1.38-.544 2.217-.544 1.227 0 2.134.363 2.72 1.088.585.725.878 1.799.878 3.221zm7.737-7.53v3.974h10.92v-3.974h-10.92zm3.221-6.694v25.94h4.477v-25.94h-4.477zm19.183 26.357c2.231 0 4.142-.432 5.731-1.297 1.59-.864 2.887-2.161 3.891-3.89l-3.891-1.59c-.613 1.032-1.38 1.799-2.301 2.3-.92.503-1.994.754-3.221.754-1.172 0-2.176-.251-3.013-.753-.808-.502-1.422-1.227-1.84-2.176-.419-.976-.628-2.161-.628-3.556.028-1.395.251-2.566.669-3.514.419-.949 1.032-1.674 1.841-2.176.809-.502 1.785-.753 2.929-.753.948 0 1.771.21 2.468.627a4.236 4.236 0 011.674 1.758c.418.753.628 1.645.628 2.677 0 .196-.056.447-.168.753a4.2 4.2 0 01-.251.67l1.381-1.925h-13.054v3.096h16.903a2.48 2.48 0 00.042-.544 6.43 6.43 0 00.042-.71c0-2.065-.391-3.822-1.172-5.272-.753-1.479-1.841-2.608-3.263-3.39-1.423-.78-3.152-1.17-5.188-1.17-2.036 0-3.807.418-5.314 1.254a8.601 8.601 0 00-3.514 3.473c-.809 1.506-1.213 3.277-1.213 5.313 0 2.009.404 3.766 1.213 5.272a8.669 8.669 0 003.431 3.514c1.506.837 3.235 1.255 5.188 1.255zm41.674-12.635c0-1.59-.223-2.942-.669-4.058-.447-1.116-1.13-1.952-2.05-2.51-.893-.586-2.023-.879-3.389-.879-1.311 0-2.483.293-3.515.879-1.004.586-1.841 1.436-2.51 2.552-.418-1.116-1.102-1.966-2.05-2.552-.92-.586-2.092-.879-3.514-.879-1.228 0-2.302.28-3.222.837-.893.53-1.618 1.325-2.176 2.385v-2.803h-4.434v19.245h4.434V48.363c0-.92.154-1.701.461-2.343.306-.641.739-1.13 1.297-1.464.585-.334 1.269-.502 2.05-.502 1.115 0 1.924.363 2.426 1.088.53.697.795 1.771.795 3.221v11.715h4.519V48.363c0-.92.153-1.701.46-2.343.335-.641.781-1.13 1.339-1.464.586-.334 1.255-.502 2.008-.502 1.116 0 1.925.363 2.427 1.088.53.697.795 1.771.795 3.221v11.715h4.518V47.861zm16.714-20.417v32.634h2.176V27.444h-2.176zm7.111 23.011c0 1.925.432 3.654 1.297 5.188a9.554 9.554 0 003.515 3.556c1.506.865 3.193 1.297 5.062 1.297 1.869 0 3.542-.432 5.021-1.297a9.466 9.466 0 003.556-3.556c.864-1.534 1.297-3.263 1.297-5.188 0-1.952-.433-3.681-1.297-5.188a9.466 9.466 0 00-3.556-3.556c-1.479-.864-3.152-1.297-5.021-1.297-1.869 0-3.556.432-5.062 1.297a9.554 9.554 0 00-3.515 3.556c-.865 1.507-1.297 3.236-1.297 5.188zm2.218 0c0-1.562.334-2.942 1.004-4.142.669-1.199 1.576-2.133 2.719-2.803 1.172-.697 2.483-1.046 3.933-1.046 1.45 0 2.747.349 3.891 1.046 1.171.67 2.092 1.618 2.761 2.845.67 1.2 1.004 2.566 1.004 4.1 0 1.562-.334 2.943-1.004 4.142a7.513 7.513 0 01-2.761 2.845c-1.144.67-2.441 1.005-3.891 1.005-1.45 0-2.761-.335-3.933-1.005a7.615 7.615 0 01-2.719-2.845c-.67-1.199-1.004-2.58-1.004-4.142zm21.245 10.878c0 1.646.377 3.096 1.13 4.352a7.67 7.67 0 003.138 2.97c1.366.697 2.928 1.046 4.686 1.046a9.363 9.363 0 004.518-1.13c1.395-.753 2.524-1.882 3.389-3.389.865-1.478 1.297-3.319 1.297-5.522V40.833h-2.176V59.66c0 1.84-.348 3.347-1.046 4.518-.669 1.2-1.534 2.078-2.594 2.636a7.167 7.167 0 01-3.388.837c-1.339 0-2.525-.28-3.557-.837-1.004-.558-1.785-1.31-2.343-2.26-.557-.948-.836-2.021-.836-3.22h-2.218zm-.46-10.878c0 2.064.418 3.85 1.255 5.356.837 1.506 1.953 2.663 3.347 3.472 1.423.81 2.985 1.213 4.686 1.213 1.674 0 3.11-.432 4.309-1.297 1.2-.892 2.134-2.091 2.804-3.597.697-1.535 1.046-3.25 1.046-5.147 0-1.924-.349-3.64-1.046-5.146-.67-1.506-1.604-2.691-2.804-3.556-1.199-.892-2.635-1.339-4.309-1.339-1.701 0-3.263.405-4.686 1.213-1.394.81-2.51 1.967-3.347 3.473-.837 1.478-1.255 3.263-1.255 5.355zm2.217 0c0-1.673.321-3.11.963-4.309.669-1.2 1.562-2.106 2.677-2.72a7.487 7.487 0 013.724-.962c.892 0 1.743.21 2.552.628.837.39 1.576.948 2.217 1.673a7.714 7.714 0 011.548 2.51c.363.949.544 1.981.544 3.097 0 1.562-.32 2.956-.962 4.184-.641 1.199-1.492 2.147-2.552 2.845-1.032.697-2.148 1.045-3.347 1.045a7.755 7.755 0 01-3.724-.92c-1.115-.642-2.008-1.562-2.677-2.761-.642-1.2-.963-2.636-.963-4.31zm22.786-18.325c0 .419.154.781.46 1.088.307.307.67.46 1.088.46.446 0 .809-.153 1.088-.46.307-.307.46-.67.46-1.088 0-.446-.153-.809-.46-1.088-.279-.306-.642-.46-1.088-.46-.418 0-.781.154-1.088.46-.306.28-.46.642-.46 1.088zm.46 8.703v19.245h2.176V40.833h-2.176zm9.222 13.764l-1.757 1.005c.279.808.712 1.59 1.297 2.342.614.753 1.409 1.367 2.385 1.841 1.004.474 2.176.712 3.514.712 1.841 0 3.334-.517 4.477-1.548 1.172-1.06 1.757-2.427 1.757-4.1 0-1.088-.279-1.981-.836-2.678-.53-.698-1.242-1.283-2.134-1.758a22.43 22.43 0 00-2.845-1.296 33.57 33.57 0 01-2.218-.88c-.697-.306-1.255-.696-1.673-1.17-.418-.503-.628-1.13-.628-1.883 0-.92.321-1.618.963-2.092.669-.474 1.478-.711 2.426-.711 1.283 0 2.329.306 3.138.92a6.639 6.639 0 011.883 2.176l1.799-1.088a6.438 6.438 0 00-1.423-1.967A7.198 7.198 0 00273.515 41c-.865-.363-1.841-.544-2.929-.544a7.488 7.488 0 00-2.845.544 4.853 4.853 0 00-2.134 1.59c-.529.725-.794 1.631-.794 2.72 0 1.143.265 2.077.794 2.802a6.183 6.183 0 002.092 1.674c.837.418 1.702.795 2.594 1.13.837.279 1.618.6 2.343.962.726.335 1.311.767 1.758 1.297.446.502.669 1.143.669 1.924 0 1.06-.363 1.897-1.088 2.51-.697.586-1.632.88-2.803.88-1.004 0-1.883-.182-2.636-.545a5.362 5.362 0 01-1.799-1.422 7.432 7.432 0 01-1.13-1.925zm13.988-13.764v2.05h8.451v-2.05h-8.451zm3.138-6.694v25.94h2.175v-25.94h-2.175zm8.984-2.009c0 .419.153.781.46 1.088.307.307.669.46 1.088.46.446 0 .808-.153 1.087-.46.307-.307.461-.67.461-1.088 0-.446-.154-.809-.461-1.088-.279-.306-.641-.46-1.087-.46a1.49 1.49 0 00-1.088.46c-.307.28-.46.642-.46 1.088zm.46 8.703v19.245h2.175V40.833h-2.175zm9.598 9.622c0-1.562.335-2.942 1.004-4.142.67-1.199 1.576-2.133 2.72-2.803 1.171-.697 2.482-1.046 3.933-1.046 1.032 0 1.994.154 2.887.46.892.307 1.659.698 2.301 1.172.669.474 1.143.976 1.422 1.506v-2.72c-.586-.669-1.492-1.24-2.719-1.715-1.2-.502-2.497-.753-3.891-.753-1.869 0-3.543.432-5.021 1.297a9.875 9.875 0 00-3.556 3.556c-.865 1.507-1.297 3.236-1.297 5.188 0 1.925.432 3.654 1.297 5.188a9.875 9.875 0 003.556 3.556c1.478.865 3.152 1.297 5.021 1.297 1.394 0 2.691-.237 3.891-.71 1.227-.475 2.133-1.06 2.719-1.758v-2.72c-.279.503-.753 1.005-1.422 1.507-.642.474-1.409.864-2.301 1.171a8.823 8.823 0 01-2.887.46c-1.451 0-2.762-.334-3.933-1.004a7.618 7.618 0 01-2.72-2.845c-.669-1.199-1.004-2.58-1.004-4.142zm19.807 4.142l-1.757 1.005c.279.808.712 1.59 1.297 2.342.614.753 1.409 1.367 2.385 1.841 1.004.474 2.176.712 3.514.712 1.841 0 3.334-.517 4.477-1.548 1.172-1.06 1.757-2.427 1.757-4.1 0-1.088-.279-1.981-.836-2.678-.53-.698-1.242-1.283-2.134-1.758a22.43 22.43 0 00-2.845-1.296 33.57 33.57 0 01-2.218-.88c-.697-.306-1.255-.696-1.673-1.17-.418-.503-.628-1.13-.628-1.883 0-.92.321-1.618.963-2.092.669-.474 1.478-.711 2.426-.711 1.283 0 2.329.306 3.138.92a6.65 6.65 0 011.883 2.176l1.799-1.088a6.438 6.438 0 00-1.423-1.967A7.198 7.198 0 00329.49 41c-.865-.363-1.841-.544-2.929-.544a7.488 7.488 0 00-2.845.544 4.853 4.853 0 00-2.134 1.59c-.529.725-.794 1.631-.794 2.72 0 1.143.265 2.077.794 2.802a6.183 6.183 0 002.092 1.674c.837.418 1.702.795 2.594 1.13.837.279 1.618.6 2.343.962.725.335 1.311.767 1.757 1.297.447.502.67 1.143.67 1.924 0 1.06-.363 1.897-1.088 2.51-.697.586-1.632.88-2.803.88-1.004 0-1.883-.182-2.636-.545a5.362 5.362 0 01-1.799-1.422 7.432 7.432 0 01-1.13-1.925z" fill="#000"/><path fill-rule="evenodd" clip-rule="evenodd" d="M27.356 20.323L1.706 4.646 4.432.184 32.586 17.39v60.855L5.684 94.687v5.414H.454v-8.347l26.902-16.442V20.323zm325.863 55.723v-57.19h-2.614V77.51l36.966 22.674 1.367-2.23-35.719-21.908z" fill="#000"/></svg>