<svg width="322" height="50" fill="none" xmlns="http://www.w3.org/2000/svg"><path d="M5.199 48.617V16.184H0v32.433h5.199zM23.37 27.154c0-2.448-.493-4.53-1.479-6.248-.985-1.717-2.29-3.02-3.91-3.91-1.622-.923-3.387-1.384-5.295-1.384-1.876 0-3.514.477-4.913 1.43-1.367.923-2.432 2.243-3.195 3.96-.732 1.717-1.097 3.768-1.097 6.152 0 2.353.365 4.404 1.097 6.153.763 1.717 1.828 3.053 3.195 4.006 1.4.923 3.037 1.384 4.913 1.384 1.908 0 3.673-.446 5.294-1.336 1.622-.922 2.925-2.241 3.911-3.958.986-1.75 1.479-3.832 1.479-6.249zm-5.342 0c0 1.463-.302 2.719-.906 3.768a6.136 6.136 0 01-2.433 2.337c-.986.51-2.082.764-3.29.764-.986 0-1.956-.255-2.91-.764-.954-.54-1.749-1.32-2.385-2.337-.604-1.017-.906-2.273-.906-3.768 0-1.494.302-2.75.906-3.768.636-1.017 1.43-1.78 2.385-2.289.954-.54 1.924-.81 2.91-.81 1.207 0 2.304.27 3.29.81 1.018.509 1.829 1.288 2.433 2.337.604 1.018.906 2.258.906 3.72zm8.58 0c0 2.226.508 4.213 1.526 5.962a11.301 11.301 0 004.245 4.054c1.78.954 3.8 1.431 6.057 1.431 2.258 0 4.261-.477 6.01-1.43a11.302 11.302 0 004.245-4.055c1.05-1.748 1.574-3.736 1.574-5.962 0-2.257-.525-4.244-1.574-5.962a10.944 10.944 0 00-4.245-4.006c-1.749-.986-3.752-1.479-6.01-1.479-2.257 0-4.276.493-6.057 1.479a10.943 10.943 0 00-4.245 4.006c-1.018 1.718-1.526 3.705-1.526 5.962zm5.294 0c0-1.367.286-2.575.858-3.625.573-1.049 1.352-1.86 2.337-2.432.986-.572 2.1-.859 3.34-.859 1.208 0 2.305.287 3.29.86a6.057 6.057 0 012.385 2.431c.572 1.05.858 2.258.858 3.625 0 1.368-.286 2.576-.858 3.625a6.484 6.484 0 01-2.385 2.433c-.985.572-2.082.858-3.29.858-1.24 0-2.354-.286-3.34-.858a6.598 6.598 0 01-2.337-2.433c-.572-1.05-.858-2.257-.858-3.625zM69.27 24.77v13.354h5.294V24.197c0-2.639-.651-4.706-1.955-6.2-1.304-1.526-3.196-2.29-5.676-2.29-1.526 0-2.846.318-3.959.954-1.08.636-1.971 1.606-2.67 2.91v-3.387h-5.152v21.94h5.151V24.77c0-.986.207-1.845.62-2.576.414-.763.986-1.335 1.718-1.717.73-.413 1.574-.62 2.527-.62 1.4 0 2.433.413 3.1 1.24.668.827 1.002 2.051 1.002 3.673zm8.82-8.586v4.531h12.45v-4.53H78.09zm3.673-7.63v29.57h5.103V8.554h-5.103zm21.867 30.047c2.544 0 4.722-.493 6.535-1.478 1.812-.986 3.291-2.465 4.435-4.436l-4.435-1.812c-.7 1.176-1.574 2.05-2.624 2.623-1.049.572-2.273.858-3.672.858-1.336 0-2.48-.286-3.434-.858-.922-.572-1.622-1.4-2.099-2.48-.477-1.113-.715-2.465-.715-4.054.032-1.59.286-2.926.763-4.007.477-1.08 1.176-1.908 2.098-2.48.923-.572 2.035-.858 3.339-.858 1.081 0 2.019.238 2.814.715a4.828 4.828 0 011.908 2.003c.477.859.715 1.876.715 3.053 0 .222-.063.508-.19.858a4.901 4.901 0 01-.287.763l1.574-2.194h-14.88v3.53h19.268c.032-.127.048-.334.048-.62a7.32 7.32 0 00.048-.811c0-2.353-.445-4.356-1.336-6.01-.858-1.685-2.098-2.973-3.72-3.863-1.622-.89-3.593-1.335-5.914-1.335-2.321 0-4.34.476-6.058 1.43a9.803 9.803 0 00-4.006 3.96c-.922 1.716-1.383 3.735-1.383 6.056 0 2.29.461 4.293 1.383 6.01a9.885 9.885 0 003.911 4.006c1.717.954 3.689 1.431 5.914 1.431zm47.509-14.404c0-1.812-.254-3.354-.763-4.626-.509-1.272-1.288-2.226-2.337-2.862-1.018-.668-2.305-1.002-3.863-1.002-1.495 0-2.83.334-4.007 1.002-1.145.668-2.098 1.638-2.862 2.91-.476-1.272-1.256-2.242-2.337-2.91-1.049-.668-2.384-1.002-4.006-1.002-1.399 0-2.623.318-3.673.954-1.017.604-1.844 1.51-2.48 2.719v-3.196h-5.055v21.94h5.055V24.77c0-1.05.175-1.94.525-2.671.35-.732.843-1.288 1.478-1.67.668-.381 1.447-.572 2.338-.572 1.271 0 2.194.413 2.766 1.24.604.795.906 2.02.906 3.673v13.354h5.151V24.77c0-1.05.175-1.94.525-2.671.381-.732.89-1.288 1.526-1.67.668-.381 1.431-.572 2.289-.572 1.272 0 2.194.413 2.767 1.24.604.795.906 2.02.906 3.673v13.354h5.151V24.197zM170.193.922v37.202h2.48V.922h-2.48zm8.107 26.232c0 2.194.492 4.166 1.478 5.915a10.892 10.892 0 004.007 4.054c1.717.985 3.64 1.478 5.771 1.478 2.13 0 4.038-.493 5.723-1.478a10.783 10.783 0 004.054-4.054c.986-1.75 1.479-3.72 1.479-5.915 0-2.225-.493-4.197-1.479-5.914a10.783 10.783 0 00-4.054-4.054c-1.685-.986-3.593-1.479-5.723-1.479-2.131 0-4.054.493-5.771 1.479a10.892 10.892 0 00-4.007 4.054c-.986 1.717-1.478 3.689-1.478 5.914zm2.527 0c0-1.78.382-3.354 1.145-4.721.763-1.368 1.797-2.433 3.1-3.196 1.336-.795 2.83-1.192 4.484-1.192 1.653 0 3.132.397 4.435 1.192 1.336.763 2.385 1.844 3.148 3.243.763 1.367 1.145 2.925 1.145 4.674 0 1.781-.382 3.355-1.145 4.722a8.56 8.56 0 01-3.148 3.244c-1.303.763-2.782 1.144-4.435 1.144-1.654 0-3.148-.381-4.484-1.145a8.685 8.685 0 01-3.1-3.243c-.763-1.367-1.145-2.941-1.145-4.722zm24.22 12.401c0 1.876.43 3.53 1.288 4.96a8.749 8.749 0 003.577 3.387c1.558.795 3.339 1.192 5.342 1.192 1.844 0 3.562-.429 5.151-1.288 1.59-.858 2.878-2.146 3.864-3.863.985-1.685 1.478-3.784 1.478-6.296V16.184h-2.48v21.463c0 2.099-.397 3.816-1.192 5.151-.763 1.368-1.749 2.37-2.957 3.005a8.177 8.177 0 01-3.864.954c-1.526 0-2.877-.318-4.054-.954-1.145-.636-2.035-1.494-2.671-2.575-.636-1.081-.954-2.306-.954-3.673h-2.528zm-.524-12.4c0 2.352.477 4.387 1.431 6.104.954 1.717 2.225 3.037 3.815 3.96 1.622.921 3.403 1.382 5.342 1.382 1.908 0 3.546-.493 4.913-1.478 1.367-1.018 2.432-2.385 3.195-4.102.795-1.749 1.193-3.704 1.193-5.867 0-2.194-.398-4.15-1.193-5.866-.763-1.717-1.828-3.069-3.195-4.054-1.367-1.018-3.005-1.527-4.913-1.527-1.939 0-3.72.462-5.342 1.384-1.59.922-2.861 2.241-3.815 3.958-.954 1.686-1.431 3.72-1.431 6.105zm2.528 0c0-1.908.365-3.546 1.097-4.913.763-1.367 1.78-2.4 3.052-3.1a8.535 8.535 0 014.245-1.098c1.018 0 1.987.239 2.909.716a7.699 7.699 0 012.528 1.908 8.814 8.814 0 011.765 2.861c.413 1.082.62 2.258.62 3.53 0 1.78-.366 3.37-1.097 4.77-.731 1.367-1.701 2.448-2.909 3.243-1.177.795-2.449 1.192-3.816 1.192a8.839 8.839 0 01-4.245-1.05c-1.272-.73-2.289-1.78-3.052-3.147-.732-1.367-1.097-3.005-1.097-4.913zm25.975-20.891c0 .477.175.89.525 1.24.35.35.763.524 1.24.524.509 0 .922-.174 1.24-.524.35-.35.525-.763.525-1.24 0-.509-.175-.922-.525-1.24-.318-.35-.731-.525-1.24-.525-.477 0-.89.175-1.24.525-.35.318-.525.731-.525 1.24zm.525 9.92v21.94h2.48v-21.94h-2.48zm10.513 15.692l-2.003 1.145c.318.922.811 1.812 1.479 2.67.699.86 1.605 1.559 2.718 2.1 1.145.54 2.48.81 4.007.81 2.098 0 3.799-.588 5.103-1.764 1.336-1.209 2.003-2.767 2.003-4.675 0-1.24-.318-2.257-.954-3.052-.604-.795-1.415-1.463-2.432-2.003a25.577 25.577 0 00-3.243-1.479 37.902 37.902 0 01-2.528-1.002c-.795-.35-1.431-.794-1.908-1.335-.477-.572-.716-1.288-.716-2.146 0-1.05.366-1.845 1.097-2.385.764-.54 1.686-.81 2.767-.81 1.462 0 2.655.349 3.577 1.049.922.699 1.638 1.526 2.146 2.48l2.051-1.24a7.334 7.334 0 00-1.621-2.242c-.7-.668-1.543-1.208-2.528-1.622-.986-.413-2.099-.62-3.339-.62a8.529 8.529 0 00-3.243.62 5.526 5.526 0 00-2.433 1.813c-.604.826-.906 1.86-.906 3.1 0 1.303.302 2.369.906 3.195a7.04 7.04 0 002.385 1.908c.954.477 1.94.907 2.957 1.288.954.318 1.844.684 2.671 1.097.827.382 1.495.874 2.003 1.479.509.572.763 1.303.763 2.194 0 1.208-.413 2.162-1.24 2.861-.795.668-1.86 1.002-3.195 1.002-1.145 0-2.147-.207-3.005-.62a6.114 6.114 0 01-2.051-1.622 8.451 8.451 0 01-1.288-2.194zm15.946-15.692v2.337h9.634v-2.337h-9.634zm3.577-7.63v29.57h2.48V8.554h-2.48zm10.241-2.29c0 .477.175.89.525 1.24.35.35.763.524 1.24.524.509 0 .922-.174 1.24-.524.35-.35.525-.763.525-1.24 0-.509-.175-.922-.525-1.24-.318-.35-.731-.525-1.24-.525-.477 0-.89.175-1.24.525-.35.318-.525.731-.525 1.24zm.525 9.92v21.94h2.48v-21.94h-2.48zm10.942 10.97c0-1.78.382-3.354 1.145-4.721.763-1.368 1.797-2.433 3.1-3.196 1.336-.795 2.83-1.192 4.484-1.192 1.176 0 2.273.174 3.291.524 1.017.35 1.892.795 2.623 1.336.763.54 1.304 1.113 1.622 1.717v-3.1c-.668-.764-1.702-1.415-3.101-1.956-1.367-.572-2.845-.858-4.435-.858-2.131 0-4.038.492-5.724 1.478-1.685.986-3.036 2.337-4.054 4.054-.986 1.717-1.478 3.689-1.478 5.914 0 2.194.492 4.166 1.478 5.915 1.018 1.717 2.369 3.068 4.054 4.054 1.686.985 3.593 1.478 5.724 1.478 1.59 0 3.068-.27 4.435-.81 1.399-.541 2.433-1.209 3.101-2.004v-3.1c-.318.572-.859 1.145-1.622 1.717-.731.54-1.606.986-2.623 1.336-1.018.35-2.115.524-3.291.524-1.654 0-3.148-.381-4.484-1.145a8.685 8.685 0 01-3.1-3.243c-.763-1.367-1.145-2.941-1.145-4.722zm22.581 4.722l-2.004 1.145c.318.922.811 1.812 1.479 2.67.699.86 1.606 1.559 2.719 2.1 1.144.54 2.48.81 4.006.81 2.099 0 3.8-.588 5.103-1.764 1.336-1.209 2.004-2.767 2.004-4.675 0-1.24-.318-2.257-.954-3.052-.604-.795-1.415-1.463-2.433-2.003a25.577 25.577 0 00-3.243-1.479 38.118 38.118 0 01-2.528-1.002c-.795-.35-1.431-.794-1.908-1.335-.477-.572-.715-1.288-.715-2.146 0-1.05.365-1.845 1.097-2.385.763-.54 1.685-.81 2.766-.81 1.463 0 2.655.349 3.577 1.049.922.699 1.638 1.526 2.147 2.48l2.05-1.24a7.334 7.334 0 00-1.621-2.242c-.7-.668-1.542-1.208-2.528-1.622-.986-.413-2.099-.62-3.339-.62a8.536 8.536 0 00-3.243.62 5.518 5.518 0 00-2.432 1.813c-.605.826-.907 1.86-.907 3.1 0 1.303.302 2.369.907 3.195a7.026 7.026 0 002.384 1.908c.954.477 1.94.907 2.957 1.288.954.318 1.845.684 2.671 1.097.827.382 1.495.874 2.004 1.479.508.572.763 1.303.763 2.194 0 1.208-.414 2.162-1.24 2.861-.795.668-1.86 1.002-3.196 1.002-1.145 0-2.146-.207-3.005-.62a6.114 6.114 0 01-2.051-1.622 8.448 8.448 0 01-1.287-2.194z" fill="#000"/></svg>