<svg width="1367" height="930" fill="none" xmlns="http://www.w3.org/2000/svg"><path d="M255.018 374.899l-39.63-83.647 23.596 18.302 16.034 65.345zm-38.723-82.286l37.21 78.504-15.126-61.411-22.084-17.093z" fill="#BD344B"/><path d="M209.639 340.109l29.042-30.706 89.395-10.134-118.437 40.84zm29.193-30.252l-27.681 29.344 113.446-39.176-85.765 9.832z" fill="#BD344B"/><path d="M253.052 373.991l73.512-74.874-1.815 32.067h-.151l-71.546 42.807zm73.059-73.815l-70.639 71.849 68.823-41.143 1.816-30.706z" fill="#BD344B"/><path d="M176.968 381.554l33.277-42.201 44.471 33.731-77.748 8.47zm33.428-41.596L177.875 381.1l75.933-8.168-43.412-32.974zm174.857 14.672l.151-.302 6.353-24.353h.151l46.437 15.428-53.092 9.227zm6.655-24.202l-6.201 23.748 50.975-8.773-44.774-14.975z" fill="#BD344B"/><path d="M465.421 362.798l-.151-.151-28.286-17.395 35.849-5.445-7.412 22.991zm-27.378-17.243l27.076 16.638 6.958-21.933-34.034 5.295z" fill="#BD344B"/><path d="M423.975 401.369l-.151-.151-41.596-47.949 83.495 9.075-41.748 39.025zm-40.689-47.647l40.841 47.042 40.84-38.117-81.681-8.925z" fill="#BD344B"/><path d="M438.95 468.529v-.302l26.168-106.488 31.614 97.715h-.303l-57.479 9.075zm26.32-105.277l-25.715 104.823 56.874-8.924-31.159-95.899z" fill="#BD344B"/><path d="M364.38 483.806l59.748-83.344 15.428 67.916-75.176 15.428zm59.597-82.285l-58.69 81.68 73.664-15.126-14.974-66.554zm-87.128-13.614v-.303l-12.705-56.874 58.991 22.69-46.286 34.487zm-12.1-56.42l12.403 55.815 45.227-33.731-57.63-22.084zm-99.227 105.731l-61.866-11.798 13.614-44.471 48.252 56.269zm-61.261-12.101l60.202 11.496-46.891-54.907-13.311 43.411zm85.765 77.749L162.9 473.824v-.151l.908-48.858.302.303 85.916 77.748zm-86.672-29.345l85.009 28.286-84.101-76.235-.908 47.949z" fill="#BD344B"/><path d="M249.27 503.319l-24.656-66.554 29.799-64.74-5.143 131.294zm-24.051-66.403l23.899 64.437 4.992-127.361-28.891 62.924z" fill="#BD344B"/><path d="M212.362 542.193l-.151-.152-49.613-68.672 86.974 29.042-37.21 39.782zm-48.706-68.068l48.706 67.311 36.454-39.025-85.16-28.286z" fill="#BD344B"/><path d="M211.908 542.042l37.21-39.933.152.152 38.117 29.042-75.479 10.739zm37.21-39.479l-36.302 38.874 73.361-10.588-37.059-28.286zm116.017-18.605l-57.933-27.227L337.152 387l27.983 96.958zm-57.479-27.378l56.874 26.622L337 388.21l-29.344 68.37z" fill="#BD344B"/><path d="M286.934 531.453l-38.118-29.042.152-.152 58.84-46.134-.151.605-20.723 74.723zm-37.513-29.042l37.211 28.285 20.42-73.512-57.631 45.227z" fill="#BD344B"/><path d="M307.506 457.033l-.151-.302-53.395-83.95 83.496 14.673-.151.302-29.799 69.277zm-52.79-83.647l52.79 82.891 29.345-68.521-82.135-14.37zm66.252 181.21l-.151-.151-34.337-23.446.303-.151 78.807-47.95-44.622 71.698zm-33.731-23.597l33.58 22.992 43.411-69.882-76.991 46.89z" fill="#BD344B"/><path d="M313.404 587.875l7.261-33.731h.151l75.479 3.63-82.891 30.101zm7.715-33.278l-7.11 32.673 80.32-29.194-73.21-3.479zm140.52-49.311l-22.84-37.361.454.151 97.865 32.672-75.479 4.538zm-21.933-36.605l22.084 36.151 73.211-4.386-95.295-31.765z" fill="#BD344B"/><path d="M536.362 501.201l-40.689-42.655 37.966 20.42v.151l2.723 22.084zm-38.723-41.142l38.118 39.932-2.572-20.874-35.546-19.058z" fill="#BD344B"/><path d="M550.429 555.958l-14.521-55.513 43.563-12.706-.151.454-28.891 67.765zm-14.067-55.21l14.218 54 28.286-66.252-42.504 12.252zm-141.125 57.478l-.151-.151-30.706-74.722.302.151 97.261 21.63-.303.303-66.403 52.789zm-30.101-74.42l30.252 73.815 65.799-52.487-96.051-21.328z" fill="#BD344B"/><path d="M482.211 574.412v-.152l-20.723-69.579.454.302 89.244 50.521-68.975 18.908zm-20.118-68.975l20.42 68.37 67.463-18.605-87.883-49.765z" fill="#BD344B"/><path d="M502.026 610.26l-106.638-49.765h.907l154.588-5.445-.302.302-48.555 54.908zm-104.974-49.462l104.974 48.857 47.95-54.303-152.924 5.446z" fill="#BD344B"/><path d="M512.312 692.546l-50.975-71.849v-.151l20.874-47.193 30.101 119.193zm-50.37-71.849l49.462 69.882-29.193-115.865-20.269 45.983zm96.655 113.597l-24.504-35.547.151-.151 32.672-29.95v.606l-8.319 65.042zm-24.05-35.547l23.747 34.336 7.866-63.529-31.613 29.193z" fill="#BD344B"/><path d="M530.464 765.604l3.63-67.462 24.656 35.546-28.286 31.916zm4.084-66.252l-3.479 65.193.302-.454 26.925-30.403-23.748-34.336zM344.11 633.554l-30.857-46.285 149.597 33.579-118.74 12.706zm-29.949-45.68l30.1 45.227 116.168-12.404-146.268-32.823z" fill="#BD344B"/><path d="M400.985 667.74l-.302-.152-56.723-34.185.151-.151 52.336-73.059v.605l4.538 106.942zm-56.42-34.488l55.966 33.731-4.386-105.731-51.58 72z" fill="#BD344B"/><path d="M436.681 709.941l-36.302-42.656 61.563-47.193-25.261 89.849zm-35.697-42.505l35.546 41.748 24.807-87.882-60.353 46.134z" fill="#BD344B"/><path d="M476.01 719.622l-40.387-10.135 76.992-18.302-36.605 28.437zm-38.572-10.135l38.572 9.681 35.092-27.227-73.664 17.546z" fill="#BD344B"/><path d="M461.337 767.42l.151-.605 14.521-47.95.303.454 14.369 26.168-.151.151-29.193 21.782zm14.823-47.496l-14.067 46.437 28.135-21.025-14.068-25.412zm-126.755-44.319v-.152l-5.445-42.504.302.151 57.026 34.337-51.883 8.168zm-4.991-41.899l5.294 41.596 50.37-8.017-55.664-33.579z" fill="#BD344B"/><path d="M437.892 709.79l-105.58-6.353 17.244-28.286h.151l88.185 34.639zm-104.974-6.807l102.403 6.202-85.614-33.58-16.789 27.378z" fill="#BD344B"/><path d="M463.002 767.268l-1.21-.151-106.79-16.185v-.151l-22.69-48.101 130.69 64.588zm-107.849-16.639l105.277 15.883-127.512-62.774 22.235 46.891z" fill="#BD344B"/><path d="M353.942 787.84l.908-37.361.302.151 56.118 20.874-.605.151-56.723 16.185zm1.21-36.756l-.907 36.151 55.664-15.883-54.757-20.268z" fill="#BD344B"/><path d="M429.421 822.025l-19.059-50.823h.303l51.428-4.538-32.672 55.361zm-18.605-50.521l18.605 49.614 31.916-54-50.521 4.386z" fill="#BD344B"/><path d="M379.051 837.151l-25.411-49.916.453.303 75.782 34.336-.454.151-50.37 15.126zm-24.504-49.159l24.807 48.706 49.613-14.975-74.42-33.731zm54.151-13.009v-.907l-8.168-107.244 35.395 39.933v.151l-27.227 68.067zm-7.714-107.092l8.017 105.277 26.47-66.403-34.487-38.874zM244.732 309.554c0 3.328-2.723 6.051-6.051 6.051-3.327 0-6.05-2.723-6.05-6.051 0-3.327 2.723-6.05 6.05-6.05 3.328 0 6.051 2.723 6.051 6.05zm-27.984 30.252c0 3.328-2.722 6.051-6.05 6.051s-6.051-2.723-6.051-6.051c0-3.327 2.723-6.05 6.051-6.05 3.328 0 6.05 2.723 6.05 6.05zm-33.277 42.657c0 3.327-2.723 6.05-6.05 6.05-3.328 0-6.051-2.723-6.051-6.05 0-3.328 2.723-6.051 6.051-6.051 3.327-.151 6.05 2.572 6.05 6.051zm-13.613 42.503c0 3.328-2.723 6.051-6.051 6.051-3.327 0-6.05-2.723-6.05-6.051 0-3.327 2.723-6.05 6.05-6.05 3.328 0 6.051 2.723 6.051 6.05zm-.908 47.798c0 3.328-2.722 6.051-6.05 6.051s-6.05-2.723-6.05-6.051c0-3.327 2.722-6.05 6.05-6.05s6.05 2.723 6.05 6.05zm49.766 67.615c0 3.327-2.723 6.05-6.05 6.05-3.328 0-6.051-2.723-6.051-6.05 0-3.328 2.723-6.051 6.051-6.051 3.327 0 6.05 2.723 6.05 6.051zM293.59 531c0 3.327-2.723 6.05-6.05 6.05-3.328 0-6.051-2.723-6.051-6.05 0-3.328 2.723-6.051 6.051-6.051 3.327 0 6.05 2.723 6.05 6.051zm34.335 22.841c0 3.328-2.723 6.051-6.05 6.051-3.328 0-6.051-2.723-6.051-6.051 0-3.327 2.723-6.05 6.051-6.05 3.327 0 6.05 2.723 6.05 6.05zm-6.201 32.218c0 3.328-2.723 6.051-6.051 6.051-3.327 0-6.05-2.723-6.05-6.051 0-3.328 2.723-6.05 6.05-6.05 3.328 0 6.051 2.722 6.051 6.05zm29.042 47.798c0 3.328-2.723 6.05-6.051 6.05-3.327 0-6.05-2.722-6.05-6.05s2.723-6.05 6.05-6.05c3.328 0 6.051 2.722 6.051 6.05zm4.235 41.597c0 3.327-2.722 6.05-6.05 6.05s-6.051-2.723-6.051-6.05c0-3.328 2.723-6.051 6.051-6.051 3.328 0 6.05 2.723 6.05 6.051zm-15.58 28.135c0 3.327-2.723 6.05-6.05 6.05-3.328 0-6.051-2.723-6.051-6.05 0-3.328 2.723-6.051 6.051-6.051 3.327 0 6.05 2.723 6.05 6.051zm22.84 45.681c0 3.328-2.723 6.051-6.05 6.051-3.328 0-6.051-2.723-6.051-6.051 0-3.328 2.723-6.05 6.051-6.05 3.327 0 6.05 2.722 6.05 6.05z" fill="#BD344B"/><path d="M361.202 786.782c0 3.328-2.722 6.05-6.05 6.05s-6.05-2.722-6.05-6.05 2.722-6.05 6.05-6.05c3.328-.152 6.05 2.571 6.05 6.05zm24.958 50.823c0 3.328-2.722 6.051-6.05 6.051s-6.05-2.723-6.05-6.051c0-3.328 2.722-6.05 6.05-6.05s6.05 2.722 6.05 6.05zm49.915-15.579c0 3.328-2.722 6.05-6.05 6.05s-6.05-2.722-6.05-6.05 2.722-6.05 6.05-6.05 6.05 2.722 6.05 6.05zm33.278-55.06c0 3.328-2.723 6.051-6.051 6.051-3.327 0-6.05-2.723-6.05-6.051 0-3.327 2.723-6.05 6.05-6.05 3.328 0 6.051 2.723 6.051 6.05zm25.866-19.814c0 3.328-2.723 6.05-6.05 6.05-3.328 0-6.051-2.722-6.051-6.05s2.723-6.05 6.051-6.05c3.327 0 6.05 2.722 6.05 6.05zm-12.403-26.925c0 3.328-2.723 6.051-6.051 6.051-3.327 0-6.05-2.723-6.05-6.051 0-3.328 2.723-6.05 6.05-6.05 3.328 0 6.051 2.722 6.051 6.05zm35.395-28.135c0 3.328-2.722 6.051-6.05 6.051s-6.051-2.723-6.051-6.051c0-3.327 2.723-6.05 6.051-6.05 3.328 0 6.05 2.723 6.05 6.05zm-10.437-81.075c0 3.328-2.723 6.051-6.051 6.051-3.327 0-6.05-2.723-6.05-6.051 0-3.328 2.723-6.05 6.05-6.05 3.328 0 6.051 2.722 6.051 6.05zm48.857-56.117c0 3.328-2.723 6.05-6.05 6.05-3.328 0-6.051-2.722-6.051-6.05s2.723-6.05 6.051-6.05c3.327 0 6.05 2.722 6.05 6.05zm29.042-65.497c0 3.328-2.723 6.05-6.05 6.05-3.328 0-6.051-2.722-6.051-6.05s2.723-6.05 6.051-6.05c3.327 0 6.05 2.722 6.05 6.05zM541.051 500.9c0 3.328-2.723 6.05-6.05 6.05-3.328 0-6.051-2.722-6.051-6.05s2.723-6.05 6.051-6.05c3.327 0 6.05 2.722 6.05 6.05zm-39.478-41.597c0 3.328-2.723 6.051-6.051 6.051-3.328 0-6.05-2.723-6.05-6.051 0-3.327 2.722-6.05 6.05-6.05s6.051 2.723 6.051 6.05zm-70.791-59.295c0 3.328-2.723 6.051-6.051 6.051-3.328 0-6.05-2.723-6.05-6.051 0-3.327 2.722-6.05 6.05-6.05s6.051 2.723 6.051 6.05zm12.555-52.94c0 3.328-2.723 6.05-6.05 6.05-3.328 0-6.051-2.722-6.051-6.05s2.723-6.05 6.051-6.05c3.327 0 6.05 2.722 6.05 6.05zm-45.833-13.463c0 3.328-2.723 6.051-6.05 6.051-3.328 0-6.051-2.723-6.051-6.051 0-3.327 2.723-6.05 6.051-6.05 3.327-.151 6.05 2.571 6.05 6.05zm-7.26 20.723c0 3.327-2.722 6.05-6.05 6.05s-6.05-2.723-6.05-6.05c0-3.328 2.722-6.051 6.05-6.051s6.05 2.723 6.05 6.051zm-60.201-23.899c0 3.328-2.722 6.051-6.05 6.051s-6.051-2.723-6.051-6.051c0-3.327 2.723-6.05 6.051-6.05 3.328 0 6.05 2.723 6.05 6.05zm1.966-31.16c0 3.328-2.723 6.051-6.05 6.051-3.328 0-6.051-2.723-6.051-6.051 0-3.328 2.723-6.05 6.051-6.05 3.327 0 6.05 2.722 6.05 6.05zm-71.696 73.815c0 3.327-2.723 6.05-6.051 6.05-3.327 0-6.05-2.723-6.05-6.05 0-3.328 2.723-6.051 6.05-6.051 3.328 0 6.051 2.572 6.051 6.051zm84.251 13.463c0 3.327-2.723 6.05-6.051 6.05-3.327 0-6.05-2.723-6.05-6.05 0-3.328 2.723-6.051 6.05-6.051 3.328 0 6.051 2.723 6.051 6.051zM231.27 437.521c0 3.328-2.723 6.051-6.051 6.051-3.327 0-6.05-2.723-6.05-6.051 0-3.328 2.723-6.05 6.05-6.05 3.328 0 6.051 2.722 6.051 6.05zm23.899 64.438c0 3.327-2.722 6.05-6.05 6.05s-6.051-2.723-6.051-6.05c0-3.328 2.723-6.051 6.051-6.051 3.328 0 6.05 2.723 6.05 6.051zm58.236-45.833c0 3.327-2.723 6.05-6.051 6.05-3.328 0-6.05-2.723-6.05-6.05 0-3.328 2.722-6.051 6.05-6.051s6.051 2.723 6.051 6.051zm57.175 28.135c0 3.328-2.722 6.051-6.05 6.051s-6.051-2.723-6.051-6.051c0-3.327 2.723-6.05 6.051-6.05 3.328 0 6.05 2.723 6.05 6.05zm75.783-15.58c0 3.328-2.723 6.051-6.051 6.051-3.328 0-6.05-2.723-6.05-6.051 0-3.327 2.722-6.05 6.05-6.05s6.051 2.723 6.051 6.05zm21.932 36.303c0 3.328-2.723 6.05-6.05 6.05-3.328 0-6.051-2.722-6.051-6.05s2.723-6.05 6.051-6.05c3.327 0 6.05 2.722 6.05 6.05zm-65.497 54.151c0 3.328-2.723 6.051-6.05 6.051-3.328 0-6.051-2.723-6.051-6.051 0-3.327 2.723-6.05 6.051-6.05 3.327 0 6.05 2.723 6.05 6.05zm86.219 15.579c0 3.328-2.723 6.051-6.051 6.051-3.327 0-6.05-2.723-6.05-6.051 0-3.327 2.723-6.05 6.05-6.05 3.328 0 6.051 2.723 6.051 6.05zm-19.664 47.798c0 3.328-2.723 6.051-6.051 6.051-3.327 0-6.05-2.723-6.05-6.051 0-3.327 2.723-6.05 6.05-6.05 3.328 0 6.051 2.723 6.051 6.05zm-63.53 46.741c0 3.327-2.722 6.05-6.05 6.05s-6.05-2.723-6.05-6.05c0-3.328 2.722-6.051 6.05-6.051s6.05 2.723 6.05 6.051zm36.456 39.478c0 3.328-2.723 6.051-6.051 6.051-3.328 0-6.05-2.723-6.05-6.051 0-3.328 2.722-6.05 6.05-6.05s6.051 2.722 6.051 6.05zm-26.018 63.379c0 3.328-2.723 6.05-6.05 6.05-3.328 0-6.051-2.722-6.051-6.05s2.723-6.05 6.051-6.05c3.327 0 6.05 2.722 6.05 6.05zm120.556-6.201c0 3.328-2.723 6.05-6.051 6.05-3.327 0-6.05-2.722-6.05-6.05s2.723-6.051 6.05-6.051c3.328 0 6.051 2.723 6.051 6.051zm35.393-96.656c0 3.327-2.722 6.05-6.05 6.05s-6.051-2.723-6.051-6.05c0-3.328 2.723-6.051 6.051-6.051 3.328 0 6.05 2.723 6.05 6.051zm-8.319 64.436c0 3.328-2.723 6.051-6.051 6.051-3.327 0-6.05-2.723-6.05-6.051 0-3.328 2.723-6.05 6.05-6.05 3.328 0 6.051 2.722 6.051 6.05zm-22.84-34.335c0 3.328-2.723 6.051-6.05 6.051-3.328 0-6.051-2.723-6.051-6.051 0-3.328 2.723-6.05 6.051-6.05 3.327 0 6.05 2.722 6.05 6.05z" fill="#BD344B"/><path d="M440.765 468.832h-.454l-133.26-12.554v-.151l31.311-69.731.151.151 102.252 82.285zm-133.26-12.705l132.504 12.403-101.496-81.832-31.008 69.429z" fill="#082440"/><path d="M463.303 622.815l-67.159-62.471 44.168-92.117v.453l22.991 154.135zm-66.706-62.471l66.404 61.866-22.689-153.076-43.715 91.21z" fill="#082440"/><path d="M535.303 699.655l-.453-.151-135.227-30.101v-.151l-3.328-109.21.151.151 138.857 139.462zm-135.378-30.554l134.622 30.101-137.95-138.555 3.328 108.454zM249.118 502.11l-85.462-77.143h.303l175.008-38.571-89.849 115.714zm-85.008-76.992l85.008 76.689 89.093-114.958-174.101 38.269z" fill="#082440"/><path d="M307.051 457.034l15.126-126.605 16.487 56.269-31.613 70.336zm15.126-125.546L307.505 455.37l30.857-68.824-16.185-55.058z" fill="#082440"/><path d="M396.447 558.68l-.454-.151-147.025-56.571 58.538-45.983v.151l88.941 102.554zM249.27 501.958l146.269 56.269-88.336-101.799-57.933 45.53z" fill="#082440"/><path d="M322.479 554.446l-38.874-24.202v-.151l23.748-74.572.152.454 14.974 98.471zm-38.571-24.202l38.269 23.748-14.824-97.26-23.445 73.512z" fill="#082440"/><path d="M400.833 671.219l-87.126-83.496 8.773-34.488.151.152 78.202 117.832zm-86.975-83.647l85.462 81.983-76.84-115.866-8.622 33.883z" fill="#082440"/><path d="M379.808 838.361l.151-.756 19.815-169.563.151 1.059 10.135 104.218-30.252 65.042zm19.966-167.899L380.261 837l29.496-63.378-9.983-103.16z" fill="#082440"/><path d="M169.858 424.966c0 3.328-2.723 6.051-6.051 6.051-3.327 0-6.05-2.723-6.05-6.051 0-3.327 2.723-6.05 6.05-6.05 3.328 0 6.051 2.723 6.051 6.05zM386.16 837.605c0 3.328-2.722 6.051-6.05 6.051s-6.05-2.723-6.05-6.051c0-3.328 2.722-6.05 6.05-6.05s6.05 2.722 6.05 6.05zm-56.117-507.177c0 3.328-2.722 6.051-6.05 6.051s-6.051-2.723-6.051-6.051c0-3.327 2.723-6.05 6.051-6.05 3.328 0 6.05 2.723 6.05 6.05zm14.521 56.118c0 3.327-2.723 6.05-6.051 6.05-3.327 0-6.05-2.723-6.05-6.05 0-3.328 2.723-6.051 6.05-6.051 3.328 0 6.051 2.723 6.051 6.051zm-89.395 115.413c0 3.327-2.722 6.05-6.05 6.05s-6.051-2.723-6.051-6.05c0-3.328 2.723-6.051 6.051-6.051 3.328 0 6.05 2.723 6.05 6.051zm58.236-45.833c0 3.327-2.723 6.05-6.051 6.05-3.328 0-6.05-2.723-6.05-6.05 0-3.328 2.722-6.051 6.05-6.051s6.051 2.723 6.051 6.051zm132.957 12.555c0 3.328-2.723 6.051-6.051 6.051-3.328 0-6.05-2.723-6.05-6.051 0-3.327 2.722-6.05 6.05-6.05s6.051 2.723 6.051 6.05zm-43.563 90.453c0 3.328-2.723 6.051-6.05 6.051-3.328 0-6.051-2.723-6.051-6.051 0-3.327 2.723-6.05 6.051-6.05 3.327 0 6.05 2.723 6.05 6.05zm66.555 63.377c0 3.328-2.723 6.051-6.051 6.051-3.327 0-6.05-2.723-6.05-6.051 0-3.327 2.723-6.05 6.05-6.05 3.328 0 6.051 2.723 6.051 6.05zm-63.53 46.741c0 3.327-2.722 6.05-6.05 6.05s-6.05-2.723-6.05-6.05c0-3.328 2.722-6.051 6.05-6.051s6.05 2.723 6.05 6.051zm158.067 64.436c0 3.328-2.723 6.051-6.051 6.051-3.327 0-6.05-2.723-6.05-6.051 0-3.328 2.723-6.05 6.05-6.05 3.328 0 6.051 2.722 6.051 6.05zm-22.839-34.335c0 3.328-2.723 6.051-6.05 6.051-3.328 0-6.051-2.723-6.051-6.051 0-3.328 2.723-6.05 6.051-6.05 3.327 0 6.05 2.722 6.05 6.05z" fill="#C8BBD4"/><path d="M215.69 190.663l38.269-49.31-1.21 37.058-37.059 12.252zm37.664-47.495l-36 46.285 34.79-11.647 1.21-34.638z" fill="#BD344B"/><path d="M278.614 186.277l-26.47-7.865.756-37.967 25.714 45.832zm-25.865-8.47l24.655 7.411-23.899-42.655-.756 35.244z" fill="#BD344B"/><path d="M250.026 199.588l2.269-21.933 27.832 8.773-30.101 13.16zm2.723-21.176l-1.966 20.117 27.529-12.101-25.563-8.016zm34.185 73.361l-38.269-34.034 44.168-19.058-5.899 53.092zm-37.059-33.882l36.605 32.823 5.597-51.126-42.202 18.303zm14.824 77.293l-46.437-43.563 43.109.756 3.328 42.807zm-44.925-42.958l44.168 41.446-3.176-40.69-40.992-.756z" fill="#BD344B"/><path d="M216.446 292.31l2.269-40.538 43.563-.302-45.832 40.84zm2.874-40.084l-2.117 38.571 43.563-38.873-41.446.302z" fill="#BD344B"/><path d="M215.69 291.857l70.942-42.807-21.479 42.504h-.152l-49.311.303zm69.58-41.295l-67.311 40.689 46.891-.302 20.42-40.387z" fill="#BD344B"/><path d="M285.271 253.286l-8.32-68.673 15.883 14.37-7.563 54.303zm-7.564-67.16l7.564 62.47 6.806-49.31-14.37-13.16z" fill="#BD344B"/><path d="M346.986 237.403l-55.059-38.42 31.764-24.504 23.295 62.924zm-54-38.42l52.789 36.756-22.235-60.353-30.554 23.597z" fill="#BD344B"/><path d="M350.313 274.008l-29.042-34.033 25.411-5.597 3.631 39.63zm-27.984-33.58l27.076 31.765-3.479-36.907-23.597 5.142z" fill="#BD344B"/><path d="M342.9 299.571l5.597-29.193 24.807 2.42-30.404 26.773zm6.051-28.588l-5.143 26.924 28.134-24.655-22.991-2.269zm-64.286-19.664l39.328-77.596-2.42 68.521-36.908 9.075zm38.571-74.874l-37.361 73.967 35.093-8.622 2.268-65.345zm6.05-34.488L293.74 126.68l40.538-21.479-4.992 36.756zM294.95 126.68l33.731 14.521 4.689-34.941-38.42 20.42z" fill="#BD344B"/><path d="M332.917 106.109l34.79-37.966 25.714 30.554-60.504 7.412zm34.941-37.059l-33.277 36.151 57.781-6.958-24.504-29.193zm-12.252 91.058l-27.076-18.453 28.286-20.269-1.21 38.722zm-26.168-18.453l25.563 17.395 1.21-36.454-26.773 19.059z" fill="#BD344B"/><path d="M356.061 122.596l11.647-54.453 26.319 29.344-37.966 25.109zm11.949-53.243l-11.042 51.882 36.151-23.9-25.109-27.982z" fill="#BD344B"/><path d="M451.354 110.344l-58.689-12.857 44.017-28.134 14.672 40.991zm-57.025-13.16l56.118 12.253-14.068-39.177-42.05 26.924z" fill="#BD344B"/><path d="M393.421 97.79l-26.319-29.345 72.302 1.21-45.983 28.135zm-24.958-28.74l25.109 27.984 43.714-26.774-68.823-1.21z" fill="#BD344B"/><path d="M419.288 136.058l-38.118-8.622 12.252-30.706 25.866 39.328zm-37.362-9.075l36 8.168-24.353-37.21-11.647 29.042z" fill="#BD344B"/><path d="M463.909 147.403l-45.983-11.647 33.126-26.319 12.857 37.966zm-44.622-11.95l43.714 11.042-12.252-36.151-31.462 25.109zm-96.504 40.387l34.034-55.21-1.815 37.815-32.219 17.395zm33.278-52.79l-31.614 51.277 29.95-16.185 1.664-35.092zm70.032 69.732l-54.453-8.622L387.522 153l38.571 39.782zm-53.546-8.925l51.883 8.168-36.757-37.966-15.126 29.798z" fill="#BD344B"/><path d="M425.035 193.083l-8.471-59.143 47.496 12.858-39.025 46.285zm-7.865-58.235l8.168 56.874L462.85 147.1l-45.68-12.252z" fill="#BD344B"/><path d="M387.221 226.058v-73.815l.151-.151 29.95-18.303-30.101 92.269zm.605-73.513v69.731l28.437-87.126-28.437 17.395zm-2.12 71.093l-63.227-49.008 51.58 7.412 11.647 41.596zm-60.958-48.101l59.9 46.589-11.042-39.631-48.858-6.958z" fill="#BD344B"/><path d="M388.431 269.016l-42.807-34.336 39.782-12.252 3.025 46.588zm-41.446-34.034l40.841 32.673-2.874-44.32-37.967 11.647zm47.041 65.799l-4.992-31.008 26.017-2.42-21.025 33.428zm-4.387-30.403l4.538 28.739 19.513-31.008-24.051 2.269z" fill="#BD344B"/><path d="M414.446 268.26l-29.95-45.681 55.513 5.445-25.563 40.236zm-28.74-45.076l28.74 43.866 24.655-38.723-53.395-5.143z" fill="#BD344B"/><path d="M438.8 228.63l54.605-55.21-11.647 50.218-42.958 4.992zm53.395-53.244l-51.883 52.488 40.841-4.689 11.042-47.799z" fill="#BD344B"/><path d="M439.556 229.235l-14.672-36.908 39.328-46.739-24.656 83.647zm-13.916-36.756l13.916 34.941 23.294-79.109-37.21 44.168z" fill="#BD344B"/><path d="M461.186 243.605l-22.386-15.58 43.563-4.992-21.177 20.572zm-20.722-15.126l20.722 14.369 19.513-18.907-40.235 4.538zm-13.01 76.235l-13.462-37.361 47.799-.605-34.337 37.966zM414.9 267.958l12.857 35.546 32.672-36.151-45.529.605zm60.958 33.882l-12.857-36.151h.454l47.949-1.21-35.546 37.361zm-11.949-35.546l12.252 34.487 33.882-35.546-46.134 1.059z" fill="#BD344B"/><path d="M510.648 265.235l-30.101-42.353 47.344 16.638-17.243 25.715zm-28.437-41.143l28.437 40.084 16.336-24.353-44.773-15.731zm-55.361 80.47l36.151-36.756 13.462 32.521-49.613 4.235zm35.848-35.698l-34.336 34.942 47.194-4.084-12.858-30.858z" fill="#BD344B"/><path d="M472.077 340.412l3.63-40.992 42.202 31.765-45.832 9.227zm4.235-39.782l-3.479 39.176 43.715-8.773-40.236-30.403zm93.479-80.168l-77.748-46.135 63.076-20.571 14.672 66.706zm-76.235-45.983l75.327 44.773-14.067-64.74-61.26 19.967z" fill="#BD344B"/><path d="M555.422 154.513l-92.571-7.261.302-.454 49.916-68.52 42.353 76.235zm-91.361-7.866l90.302 7.109-41.294-74.42-49.008 67.311z" fill="#BD344B"/><path d="M554.363 154.663l31.462-73.815.303.15 73.664 37.362-105.429 36.303zm31.765-73.059l-30.706 72 102.706-35.395-72-36.605z" fill="#BD344B"/><path d="M640.279 308.495l-86.067-154.891 76.235 27.832 9.832 127.059zm-84.706-153.832l83.799 151.11-9.379-124.034-74.42-27.076zM513.22 79.184l-.152-.605 69.429-29.95h.151l43.563 4.992L513.22 79.184zm69.277-29.95l-66.252 28.59 106.336-24.051-40.084-4.538z" fill="#BD344B"/><path d="M660.85 119.571l-75.177-38.118v-.151l-3.63-33.126 78.807 71.395zm-74.572-38.572l70.79 36-74.269-67.31 3.479 31.31z" fill="#BD344B"/><path d="M659.187 119.268l-35.244-65.647 44.925-21.933-9.681 87.58zM624.7 53.924l34.033 63.378 9.378-84.555L624.7 53.924zm236.721 114.958l-306.605-14.37v-.605l209.345-26.319 97.26 41.294zm-302.974-14.824l299.647 14.068-93.933-39.933-205.714 25.865zm-65.648 20.874l-.151-.151-29.647-27.832.303-.151L587.64 80.092l-94.841 94.84zM464.06 147.1l28.739 27.076 91.664-91.664L464.06 147.1zm102.404 113.143l2.42-40.537 62.622-39.328-65.042 79.865zm3.176-40.235l-2.269 38.42 61.563-75.63-59.294 37.21z" fill="#BD344B"/><path d="M529.405 237.251l.152-.756 25.411-83.647 13.463 63.529-39.026 20.874zm25.412-81.832l-24.504 80.622 37.361-19.815-12.857-60.807z" fill="#BD344B"/><path d="M544.682 291.252l-34.336-26.471 19.664-28.89 14.672 55.361zm-33.58-26.622l32.521 24.958-13.916-52.185-18.605 27.227zm-22.991 121.916l-23.295-23.294 53.244-33.126-29.949 56.42zm-22.387-23.143l22.084 22.236 28.588-53.698-50.672 31.462z" fill="#BD344B"/><path d="M517.001 331.94l-6.655-67.916 34.185 26.32-.152.302-27.378 41.294zm-5.899-66.554l6.353 64.89 26.319-39.781-32.672-25.109zm77.142 44.471l-24.504-52.488 76.992 50.067-52.488 2.421zm-22.991-50.824l23.445 50.218 50.219-2.268-73.664-47.95z" fill="#BD344B"/><path d="M596.414 373.688l-45.378-20.874v-.151l-7.261-63.529 52.639 84.554zm-44.773-21.327l43.109 19.815-50.218-80.471 7.109 60.656z" fill="#BD344B"/><path d="M595.959 374.143l-52.487-84.252 47.647 15.882 4.84 68.37zm-51.126-83.194l50.37 80.774-4.689-65.496-45.681-15.278zm93.781 17.698l40.538-65.042 85.916-40.538-126.454 105.58zm40.841-64.588l-38.421 61.714 119.95-100.134-81.529 38.42zM526.227 445.234l-38.873-59.445 84.857 7.261-45.984 52.184zm-37.663-58.84l37.663 57.782 44.774-50.673-82.437-7.109z" fill="#BD344B"/><path d="M572.967 395.168l-57.327-65.496 35.848 22.689 21.479 42.807zm-54.151-62.773l51.429 58.84-19.21-38.42-32.219-20.42z" fill="#BD344B"/><path d="M587.186 461.268l-15.882-68.37 40.235 9.832-.151.303-24.202 58.235zm-15.126-67.613l15.277 65.496 23.446-56.118-38.723-9.378z" fill="#BD344B"/><path d="M533.185 482.141l-7.26-37.966 62.319 15.882-55.059 22.084zm-6.504-37.059l6.958 36.303 52.639-21.025-59.597-15.278zm-63.226-297.377l-12.857-37.815.302-.151 61.563-31.463-49.008 69.429zm-12.101-37.664l12.252 36.303 46.891-66.555-59.143 30.252zm274.992-30.554l-58.84-49.008 82.739.605-23.899 48.403zM669.17 30.932l57.025 47.496 23.143-46.89-80.168-.606z" fill="#BD344B"/><path d="M764.01 128.798l-14.672-97.865 58.084 22.689-43.412 75.176zM750.094 31.84l14.219 95.143 42.353-73.21-56.572-21.933z" fill="#BD344B"/><path d="M860.665 170.697l-.605-.454-133.412-94.084 122.37-11.647v.302l11.647 105.883zM728.312 76.764l131.597 92.723-11.345-104.068-120.252 11.345z" fill="#BD344B"/><path d="M677.791 245.117l-20.723-127.059 70.79-42.202-.151.757-49.916 168.504zm-20.118-126.756l20.269 124.033 48.857-165.176-69.126 41.143zm155.648 130.084l-51.731-45.529v-.151l2.42-76.236 49.311 121.916zm-51.126-45.832l49.613 43.715-47.344-117.076-2.269 73.361zm-96.807 181.513l-70.336-10.891 44.773-66.706 25.563 77.597zm-69.277-11.345l68.369 10.589-24.806-75.479-43.563 64.89z" fill="#BD344B"/><path d="M699.724 320.596l-60.958-13.462 176.067-60.958-115.109 74.42zm-58.841-13.462l58.689 12.857 110.723-71.546-169.412 58.689z" fill="#BD344B"/><path d="M780.649 326.647l-81.227-6.05v-.152L677.489 243l.757.605 102.403 83.042zm-80.773-6.655l78.958 5.899-100.286-81.378 21.328 75.479z" fill="#BD344B"/><path d="M704.716 402.125l-40.236-18.302 35.395-64.589 4.841 82.891zm-39.328-18.605l38.723 17.546-4.689-79.714-34.034 62.168zm183.328-318.1l-42.655-9.53 100.436-3.63v.605l-57.781 12.554zm-37.966-9.076l37.966 8.47 54.302-11.798-92.268 3.328z" fill="#BD344B"/><path d="M859.304 171.756l43.714-121.613 8.622 57.479-.151.151-52.185 63.983zm43.411-119.193L861.119 168.58l49.765-61.11-8.169-54.907z" fill="#BD344B"/><path d="M984.699 137.268l-82.74-86.37 66.857 14.673v.151l15.883 71.546zm-80.925-85.462l79.866 83.345-15.278-69.278-64.588-14.067zm143.996 65.798l-.3-.303-82.435-54.453 91.365 12.1-8.63 42.656zm-80.315-53.849l79.865 52.79 8.17-41.143-88.035-11.647z" fill="#BD344B"/><path d="M1038.09 142.563h-.3l-55.059-6.05 66.399-23.294-11.04 29.344zm-52.636-6.504l52.186 5.748 10.44-27.832-62.626 22.084zm142.186-39.026l-74.27-22.235 107.7 6.201-33.43 16.034zm-69.13-21.328l69.13 20.723 31.16-14.975-100.29-5.748z" fill="#BD344B"/><path d="M1073.34 117.453l54.45-21.025 12.4 19.815-66.85 1.21zm54.15-20.269l-50.82 19.664 62.31-1.21-11.49-18.454z" fill="#BD344B"/><path d="M1075.46 117.453l-27.23-3.63v-.303l7.41-39.176 19.82 43.109zm-26.32-4.235l25.41 3.479-18.46-40.538-6.95 37.059z" fill="#BD344B"/><path d="M1069.86 165.705l4.99-49.462 19.82 25.866-24.81 23.596zm5.44-47.798l-4.69 46.286 23.15-22.084-18.46-24.202z" fill="#BD344B"/><path d="M1104.95 201.856l-30.4-85.008 53.39-20.572-.15.605-22.84 104.975zm-29.49-84.554l29.49 82.437 22.24-102.555-51.73 20.118z" fill="#BD344B"/><path d="M1105.4 201.706l-35.54-36.757 24.5-23.294 11.04 60.051zm-34.79-36.757l33.74 34.942-10.44-57.026-23.3 22.084zm-99.525 11.345l-60.958-69.429 74.42 29.194-13.462 40.235zm-58.84-68.067l58.537 66.857 12.858-38.723-71.395-28.134z" fill="#BD344B"/><path d="M1019.04 262.664l-48.71-87.58 58.39 20.723v.302l-9.68 66.555zm-47.349-86.37l47.039 84.555 9.38-64.589-56.419-19.966zm-86.824 151.865L859.606 168.73l42.353 67.916v.152l-17.092 91.361zm-24.05-156.555l24.201 152.925 16.336-87.883-40.537-65.042z" fill="#BD344B"/><path d="M944.616 284.747l-43.866-48.706 116.77 25.563-72.904 23.143zM902.565 237.1l42.353 47.042 70.492-22.387L902.565 237.1z" fill="#BD344B"/><path d="M984.548 287.167l-40.236-2.42 26.774-110.723 13.462 113.143zm-39.479-3.025l38.723 2.42-12.858-109.21-25.865 106.79z" fill="#BD344B"/><path d="M1009.51 323.621l-25.719-36.756 33.129-25.715-7.41 62.471zm-24.963-36.756l24.503 34.941 6.96-59.446-31.463 24.505zm-7.411 113.748L944.01 283.084l42.806 55.059-9.68 62.47zm-31.765-114.806l31.462 111.932 9.378-59.445-40.84-52.487z" fill="#BD344B"/><path d="M918.294 421.335l-33.882-95.445 106.336 13.311-72.454 82.134zm-32.974-94.689l33.126 93.479 71.092-80.471-104.218-13.008z" fill="#BD344B"/><path d="M885.623 326.647H781.707l31.462-77.294 72.454 77.294zm-103.008-.605h101.647l-70.942-75.631-30.705 75.631z" fill="#BD344B"/><path d="M919.656 421.184l-107.848-14.521v-.151l-30.252-81.075 138.1 95.747zM812.262 406.21l104.974 14.218-134.47-93.176 29.496 78.958z" fill="#BD344B"/><path d="M914.06 449.924l-83.193-4.84-19.513-39.177 102.706 44.017zm-82.739-5.597l79.412 4.689-98.168-42.05 18.756 37.361z" fill="#BD344B"/><path d="M858.396 454.613l60.353-34.487-6.201 29.496-54.152 4.991zm59.597-33.277l-56.723 32.521 50.975-4.689 5.748-27.832z" fill="#BD344B"/><path d="M935.993 484.562l-58.387-4.991-18.605-26.017 76.992 31.008zm-58.084-5.445l54 4.538-71.244-28.74 17.244 24.202z" fill="#BD344B"/><path d="M910.279 507.554l-32.974-28.134 35.395-30.555-2.421 58.689zm-32.067-28.134l31.614 26.924 2.269-56.117-33.883 29.193z" fill="#BD344B"/><path d="M870.647 527.975l-11.193-74.874 18.756 26.168v.151l-7.563 48.555zm-10.285-72.606l10.285 68.521 6.807-44.47-17.092-24.051z" fill="#BD344B"/><path d="M899.993 568.058l-29.647-42.05 7.411-48.252 22.236 90.302zm-29.042-42.201l27.68 39.176-20.874-84.101-6.806 44.925zm-113.143-68.673l-50.219-9.832-3.63-46.437 53.849 56.269zm-49.614-10.437l47.799 9.378-51.429-53.697 3.63 44.319z" fill="#BD344B"/><path d="M770.514 532.663l-29.495-20.874v-.151l15.882-56.269 13.613 77.294zm-28.739-21.176l27.983 19.815-12.857-73.361-15.126 53.546z" fill="#BD344B"/><path d="M741.624 512.546l-33.883-65.496.151-.151 75.026-122.218-41.294 187.865zm-33.278-65.496l32.975 63.681 40.084-182.723-73.059 119.042z" fill="#BD344B"/><path d="M757.052 457.033l-.151-.151-50.672-55.513 106.638 4.84-55.815 50.824zm-49.613-55.059l49.462 54.303 54.302-49.462-103.764-4.841zM222.95 292.613c0 3.328-2.722 6.05-6.05 6.05s-6.05-2.722-6.05-6.05 2.722-6.051 6.05-6.051 6.05 2.572 6.05 6.051zm2.119-39.177c0 3.328-2.723 6.051-6.051 6.051-3.328 0-6.05-2.723-6.05-6.051 0-3.327 2.722-6.05 6.05-6.05 3.328-.151 6.051 2.571 6.051 6.05zm41.898 0c0 3.328-2.723 6.051-6.05 6.051-3.328 0-6.051-2.723-6.051-6.051 0-3.327 2.723-6.05 6.051-6.05 3.327-.151 6.05 2.571 6.05 6.05zm3.48 39.329c0 3.328-2.723 6.051-6.051 6.051-3.328 0-6.05-2.723-6.05-6.051 0-3.327 2.722-6.05 6.05-6.05s6.051 2.723 6.051 6.05zm21.629-41.748c0 3.328-2.722 6.051-6.05 6.051s-6.05-2.723-6.05-6.051c0-3.328 2.722-6.05 6.05-6.05s6.05 2.722 6.05 6.05zm35.85-9.53c0 3.328-2.723 6.051-6.05 6.051-3.328 0-6.051-2.723-6.051-6.051 0-3.328 2.723-6.05 6.051-6.05 3.327-.152 6.05 2.571 6.05 6.05zm27.377 30.253c0 3.328-2.723 6.05-6.05 6.05-3.328 0-6.051-2.722-6.051-6.05s2.723-6.051 6.051-6.051c3.327 0 6.05 2.723 6.05 6.051zm23.445 3.024c0 3.328-2.722 6.051-6.05 6.051s-6.051-2.723-6.051-6.051c0-3.327 2.723-6.05 6.051-6.05 3.328 0 6.05 2.723 6.05 6.05zm-29.344 24.051c0 3.328-2.723 6.05-6.051 6.05-3.328 0-6.05-2.722-6.05-6.05s2.722-6.05 6.05-6.05 6.051 2.722 6.051 6.05zm-93.327-80.168c0 3.328-2.722 6.051-6.05 6.051s-6.05-2.723-6.05-6.051c0-3.328 2.722-6.05 6.05-6.05s6.05 2.722 6.05 6.05zm43.11-19.058c0 3.327-2.723 6.05-6.051 6.05-3.327 0-6.05-2.723-6.05-6.05 0-3.328 2.723-6.051 6.05-6.051 3.328 0 6.051 2.723 6.051 6.051zm-41.901-1.21c0 3.327-2.722 6.05-6.05 6.05s-6.05-2.723-6.05-6.05c0-3.328 2.722-6.051 6.05-6.051s6.05 2.723 6.05 6.051zm1.21-20.27c0 3.328-2.722 6.05-6.05 6.05s-6.05-2.722-6.05-6.05 2.722-6.05 6.05-6.05 6.05 2.571 6.05 6.05zm-35.243 11.496c0 3.328-2.723 6.051-6.05 6.051-3.328 0-6.051-2.723-6.051-6.051 0-3.328 2.723-6.05 6.051-6.05 3.327 0 6.05 2.571 6.05 6.05zm36.453-47.344c0 3.327-2.722 6.05-6.05 6.05s-6.051-2.723-6.051-6.05c0-3.328 2.723-6.051 6.051-6.051 3.328-.151 6.05 2.572 6.05 6.051zm23.9 44.167c0 3.328-2.723 6.051-6.051 6.051-3.327 0-6.05-2.723-6.05-6.051 0-3.327 2.723-6.05 6.05-6.05 3.328 0 6.051 2.723 6.051 6.05zm45.529-10.739c0 3.328-2.723 6.051-6.05 6.051-3.328 0-6.051-2.723-6.051-6.051 0-3.328 2.723-6.05 6.051-6.05 3.327 0 6.05 2.722 6.05 6.05zm50.22 7.109c0 3.328-2.723 6.051-6.051 6.051-3.327 0-6.05-2.723-6.05-6.051 0-3.327 2.723-6.05 6.05-6.05 3.328 0 6.051 2.723 6.051 6.05zm13.158 40.689c0 3.328-2.723 6.05-6.05 6.05-3.328 0-6.051-2.722-6.051-6.05s2.723-6.05 6.051-6.05c3.327 0 6.05 2.722 6.05 6.05zm-39.479 13.16c0 3.328-2.722 6.051-6.05 6.051s-6.05-2.723-6.05-6.051c0-3.328 2.722-6.05 6.05-6.05s6.05 2.722 6.05 6.05zm42.959 33.429c0 3.328-2.722 6.05-6.05 6.05s-6.05-2.722-6.05-6.05 2.722-6.051 6.05-6.051 6.05 2.723 6.05 6.051zm23.899-2.27c0 3.328-2.723 6.051-6.051 6.051-3.327 0-6.05-2.723-6.05-6.051 0-3.327 2.723-6.05 6.05-6.05 3.328-.151 6.051 2.571 6.051 6.05zm14.37 37.059c0 3.328-2.723 6.05-6.05 6.05-3.328 0-6.051-2.722-6.051-6.05s2.723-6.05 6.051-6.05c3.327-.152 6.05 2.571 6.05 6.05zm47.949-3.478c0 3.327-2.722 6.05-6.05 6.05s-6.051-2.723-6.051-6.05c0-3.328 2.723-6.051 6.051-6.051 3.328-.151 6.05 2.572 6.05 6.051zm-81.379-1.362c0 3.328-2.722 6.05-6.05 6.05s-6.051-2.722-6.051-6.05 2.723-6.05 6.051-6.05c3.328 0 6.05 2.722 6.05 6.05zm45.077-70.487c0 3.327-2.722 6.05-6.05 6.05s-6.05-2.723-6.05-6.05c0-3.328 2.722-6.051 6.05-6.051s6.05 2.723 6.05 6.051zm21.025 13.765c0 3.327-2.723 6.05-6.051 6.05-3.327 0-6.05-2.723-6.05-6.05 0-3.328 2.723-6.051 6.05-6.051 3.328-.151 6.051 2.572 6.051 6.051zm21.177-18.606c0 3.328-2.723 6.05-6.051 6.05-3.328 0-6.05-2.722-6.05-6.05s2.722-6.051 6.05-6.051 6.051 2.723 6.051 6.051zm27.529 40.689c0 3.328-2.723 6.051-6.051 6.051-3.327 0-6.05-2.723-6.05-6.051 0-3.328 2.723-6.05 6.05-6.05 3.328-.151 6.051 2.722 6.051 6.05zm-47.95 2.42c0 3.328-2.723 6.051-6.051 6.051-3.327 0-6.05-2.723-6.05-6.051 0-3.327 2.723-6.05 6.05-6.05 3.328-.151 6.051 2.571 6.051 6.05zM393.573 154.21c0 3.327-2.723 6.05-6.051 6.05-3.328 0-6.05-2.723-6.05-6.05 0-3.328 2.722-6.051 6.05-6.051 3.328-.151 6.051 2.572 6.051 6.051zM423.522 135c0 3.327-2.723 6.05-6.051 6.05-3.327 0-6.05-2.723-6.05-6.05 0-3.328 2.723-6.051 6.05-6.051 3.328 0 6.051 2.723 6.051 6.051zm-34.639-8.32c0 3.328-2.723 6.051-6.05 6.051-3.328 0-6.051-2.723-6.051-6.051 0-3.327 2.723-6.05 6.051-6.05 3.327 0 6.05 2.723 6.05 6.05zm9.529-28.739c0 3.328-2.722 6.05-6.05 6.05s-6.05-2.722-6.05-6.05 2.722-6.05 6.05-6.05 6.05 2.722 6.05 6.05zm-35.848 25.109c0 3.328-2.723 6.051-6.051 6.051-3.327 0-6.05-2.723-6.05-6.051 0-3.327 2.723-6.05 6.05-6.05 3.328 0 6.051 2.723 6.051 6.05zm-1.21 35.849c0 3.328-2.723 6.05-6.051 6.05-3.327 0-6.05-2.722-6.05-6.05s2.723-6.05 6.05-6.05c3.328 0 6.051 2.722 6.051 6.05zm-26.321-17.848c0 3.327-2.722 6.05-6.05 6.05s-6.05-2.723-6.05-6.05c0-3.328 2.722-6.051 6.05-6.051 3.328-.151 6.05 2.572 6.05 6.051zm-34.637-13.161c0 3.328-2.723 6.051-6.051 6.051-3.327 0-6.05-2.723-6.05-6.051 0-3.327 2.723-6.05 6.05-6.05 3.328 0 6.051 2.723 6.051 6.05zm39.479-20.268c0 3.327-2.722 6.05-6.05 6.05s-6.051-2.723-6.051-6.05c0-3.328 2.723-6.051 6.051-6.051 3.328 0 6.05 2.723 6.05 6.051zm34.639-38.269c0 3.328-2.723 6.05-6.05 6.05-3.328 0-6.051-2.722-6.051-6.05s2.723-6.05 6.051-6.05c3.327 0 6.05 2.722 6.05 6.05zm69.276-.151c0 3.328-2.722 6.05-6.05 6.05s-6.051-2.722-6.051-6.05 2.723-6.05 6.051-6.05c3.328 0 6.05 2.722 6.05 6.05zm11.95 40.688c0 3.328-2.722 6.051-6.05 6.051s-6.05-2.723-6.05-6.051c0-3.327 2.722-6.05 6.05-6.05s6.05 2.723 6.05 6.05zm62.168-31.462c0 3.328-2.722 6.05-6.05 6.05s-6.05-2.722-6.05-6.05c0-3.327 2.722-6.05 6.05-6.05s6.05 2.723 6.05 6.05zm74.269 3.933c0 3.328-2.723 6.05-6.05 6.05-3.328 0-6.051-2.722-6.051-6.05s2.723-6.05 6.051-6.05c3.327 0 6.05 2.722 6.05 6.05zM587.79 49.84c0 3.328-2.722 6.051-6.05 6.051s-6.051-2.723-6.051-6.05c0-3.328 2.723-6.05 6.051-6.05 3.328-.152 6.05 2.57 6.05 6.05zm42.201 3.933c0 3.328-2.722 6.05-6.05 6.05s-6.05-2.722-6.05-6.05 2.722-6.05 6.05-6.05 6.05 2.722 6.05 6.05zM562.228 154.21c0 3.327-2.723 6.05-6.051 6.05-3.327 0-6.05-2.723-6.05-6.05 0-3.328 2.723-6.051 6.05-6.051 3.328-.151 6.051 2.572 6.051 6.051zm-93.328-7.261c0 3.328-2.723 6.05-6.051 6.05-3.327 0-6.05-2.722-6.05-6.05s2.723-6.051 6.05-6.051c3.328 0 6.051 2.723 6.051 6.051zm-37.059 44.32c0 3.328-2.723 6.051-6.05 6.051-3.328 0-6.051-2.723-6.051-6.051 0-3.327 2.723-6.05 6.051-6.05 3.327-.151 6.05 2.571 6.05 6.05zm67.009-15.58c0 3.328-2.723 6.051-6.051 6.051-3.327 0-6.05-2.723-6.05-6.051 0-3.328 2.723-6.05 6.05-6.05 3.328 0 6.051 2.722 6.051 6.05zm35.848 64.588c0 3.328-2.723 6.05-6.051 6.05-3.328 0-6.05-2.722-6.05-6.05s2.722-6.05 6.05-6.05 6.051 2.722 6.051 6.05zm40.689-20.42c0 3.328-2.723 6.05-6.05 6.05-3.328 0-6.051-2.722-6.051-6.05s2.723-6.05 6.051-6.05c3.327 0 6.05 2.722 6.05 6.05zm-3.63 40.689c0 3.327-2.723 6.05-6.05 6.05-3.328 0-6.051-2.723-6.051-6.05 0-3.328 2.723-6.051 6.051-6.051 3.327 0 6.05 2.723 6.05 6.051zm23.9 46.588c0 3.328-2.723 6.051-6.051 6.051-3.328 0-6.05-2.723-6.05-6.051 0-3.327 2.722-6.05 6.05-6.05s6.051 2.723 6.051 6.05zm-44.168-16.639c0 3.328-2.723 6.05-6.051 6.05-3.328 0-6.05-2.722-6.05-6.05s2.722-6.051 6.05-6.051c3.328-.151 6.051 2.572 6.051 6.051zm6.503 62.017c0 3.328-2.722 6.051-6.05 6.051s-6.05-2.723-6.05-6.051c0-3.327 2.722-6.05 6.05-6.05s6.05 2.723 6.05 6.05zm42.504 21.631c0 3.328-2.722 6.051-6.05 6.051s-6.05-2.723-6.05-6.051c0-3.328 2.722-6.05 6.05-6.05s6.05 2.722 6.05 6.05zm71.699 9.529c0 3.328-2.723 6.051-6.051 6.051-3.328 0-6.05-2.723-6.05-6.051 0-3.327 2.722-6.05 6.05-6.05s6.051 2.723 6.051 6.05zm34.638-63.378c0 3.327-2.722 6.05-6.05 6.05s-6.051-2.723-6.051-6.05c0-3.328 2.723-6.051 6.051-6.051 3.328 0 6.05 2.723 6.05 6.051zm-62.169-13.16c0 3.328-2.722 6.051-6.05 6.051s-6.051-2.723-6.051-6.051c0-3.327 2.723-6.05 6.051-6.05 3.328 0 6.05 2.723 6.05 6.05zm40.69-62.168c0 3.328-2.723 6.051-6.051 6.051-3.327 0-6.05-2.723-6.05-6.051 0-3.327 2.723-6.05 6.05-6.05 3.328 0 6.051 2.723 6.051 6.05zm-49.009-62.168c0 3.328-2.723 6.051-6.05 6.051-3.328 0-6.051-2.723-6.051-6.051 0-3.327 2.723-6.05 6.051-6.05 3.327 0 6.05 2.723 6.05 6.05zm27.53-63.377c0 3.327-2.722 6.05-6.05 6.05s-6.051-2.723-6.051-6.05c0-3.328 2.723-6.051 6.051-6.051 3.328 0 6.05 2.723 6.05 6.051zm10.134-87.883c0 3.327-2.723 6.05-6.05 6.05-3.328 0-6.051-2.723-6.051-6.05 0-3.328 2.723-6.05 6.051-6.05 3.327 0 6.05 2.722 6.05 6.05zm81.832.605c0 3.328-2.723 6.05-6.05 6.05-3.328 0-6.051-2.722-6.051-6.05s2.723-6.05 6.051-6.05c3.327 0 6.05 2.723 6.05 6.05zm-22.688 45.529c0 3.328-2.723 6.05-6.051 6.05-3.328 0-6.05-2.722-6.05-6.05 0-3.327 2.722-6.05 6.05-6.05s6.051 2.723 6.051 6.05zm37.058 50.218c0 3.328-2.722 6.051-6.05 6.051s-6.051-2.723-6.051-6.051c0-3.327 2.723-6.05 6.051-6.05 3.328 0 6.05 2.723 6.05 6.05zm43.11-72.907c0 3.328-2.723 6.05-6.051 6.05-3.328 0-6.05-2.722-6.05-6.05 0-3.327 2.722-6.05 6.05-6.05 3.328-.151 6.051 2.571 6.051 6.05zm41.748 10.739c0 3.328-2.723 6.05-6.051 6.05-3.328 0-6.05-2.722-6.05-6.05 0-3.327 2.722-6.05 6.05-6.05s6.051 2.571 6.051 6.05zm56.267-13.159c0 3.328-2.722 6.05-6.05 6.05s-6.051-2.722-6.051-6.05 2.723-6.05 6.051-6.05c3.328 0 6.05 2.722 6.05 6.05zm63.379 13.159c0 3.328-2.723 6.05-6.05 6.05-3.328 0-6.051-2.722-6.051-6.05 0-3.327 2.723-6.05 6.051-6.05 3.327 0 6.05 2.571 6.05 6.05zm14.37 70.488c0 3.327-2.722 6.05-6.05 6.05s-6.051-2.723-6.051-6.05c0-3.328 2.723-6.051 6.051-6.051 3.328 0 6.05 2.723 6.05 6.051zm54.155 5.445c0 3.328-2.73 6.05-6.05 6.05-3.33 0-6.05-2.722-6.05-6.05s2.72-6.051 6.05-6.051c3.32 0 6.05 2.723 6.05 6.051zm11.49-25.714c0 3.328-2.72 6.051-6.05 6.051-3.33 0-6.05-2.723-6.05-6.051 0-3.328 2.72-6.05 6.05-6.05 3.33-.151 6.05 2.571 6.05 6.05zm27.53 3.48c0 3.327-2.72 6.05-6.05 6.05-3.33 0-6.05-2.723-6.05-6.05 0-3.328 2.72-6.051 6.05-6.051 3.33 0 6.05 2.723 6.05 6.051zm-7.11 44.318c0 3.328-2.72 6.05-6.05 6.05-3.33 0-6.05-2.722-6.05-6.05s2.72-6.051 6.05-6.051c3.33 0 6.05 2.723 6.05 6.051zm34.64 39.479c0 3.328-2.72 6.051-6.05 6.051-3.33 0-6.05-2.723-6.05-6.051 0-3.327 2.72-6.05 6.05-6.05 3.33 0 6.05 2.723 6.05 6.05zm-9.68-61.109c0 3.328-2.72 6.05-6.05 6.05-3.33 0-6.05-2.722-6.05-6.05s2.72-6.05 6.05-6.05c3.33 0 6.05 2.722 6.05 6.05zm44.32-23.899c0 3.327-2.72 6.05-6.05 6.05-3.33 0-6.05-2.723-6.05-6.05 0-3.328 2.72-6.051 6.05-6.051 3.33 0 6.05 2.723 6.05 6.051zm-10.74-21.479c0 3.328-2.72 6.051-6.05 6.051-3.33 0-6.05-2.723-6.05-6.05 0-3.329 2.72-6.051 6.05-6.051 3.33 0 6.05 2.722 6.05 6.05zm31.16-15.58c0 3.328-2.72 6.05-6.05 6.05-3.33 0-6.05-2.722-6.05-6.05s2.72-6.05 6.05-6.05c3.33 0 6.05 2.722 6.05 6.05zm-104.07-7.109c0 3.327-2.72 6.05-6.05 6.05-3.33 0-6.05-2.723-6.05-6.05 0-3.328 2.72-6.05 6.05-6.05 3.33 0 6.05 2.722 6.05 6.05zm-83.645 99.227c0 3.328-2.723 6.051-6.05 6.051-3.328 0-6.051-2.723-6.051-6.051 0-3.328 2.723-6.05 6.051-6.05 3.327 0 6.05 2.722 6.05 6.05zm56.115 23.899c0 3.327-2.72 6.05-6.05 6.05-3.32 0-6.05-2.723-6.05-6.05 0-3.328 2.73-6.051 6.05-6.051 3.33 0 6.05 2.723 6.05 6.051zm-9.53 64.588c0 3.328-2.72 6.051-6.05 6.051-3.32 0-6.05-2.723-6.05-6.051 0-3.327 2.73-6.05 6.05-6.05 3.33 0 6.05 2.723 6.05 6.05zm-33.425 26.32c0 3.328-2.723 6.05-6.05 6.05-3.328 0-6.051-2.722-6.051-6.05s2.723-6.051 6.051-6.051c3.327 0 6.05 2.723 6.05 6.051zm26.315 35.848c0 3.328-2.72 6.051-6.05 6.051-3.32 0-6.05-2.723-6.05-6.051 0-3.327 2.73-6.05 6.05-6.05 3.33 0 6.05 2.723 6.05 6.05zm-65.794-41.899c0 3.328-2.723 6.05-6.051 6.05-3.327 0-6.05-2.722-6.05-6.05s2.723-6.05 6.05-6.05c3.328 0 6.051 2.722 6.051 6.05zm44.169 58.69c0 3.327-2.723 6.05-6.051 6.05-3.328 0-6.05-2.723-6.05-6.05 0-3.328 2.722-6.051 6.05-6.051 3.328-.151 6.051 2.572 6.051 6.051zm-10.741 58.537c0 3.327-2.722 6.05-6.05 6.05s-6.05-2.723-6.05-6.05c0-3.328 2.722-6.051 6.05-6.051s6.05 2.723 6.05 6.051zm-60.958 22.689c0 3.328-2.722 6.05-6.05 6.05s-6.05-2.722-6.05-6.05 2.722-6.05 6.05-6.05 6.05 2.722 6.05 6.05zm-3.63 27.53c0 3.328-2.723 6.051-6.051 6.051-3.328 0-6.05-2.723-6.05-6.051 0-3.327 2.722-6.05 6.05-6.05s6.051 2.723 6.051 6.05zm19.21 37.059c0 3.328-2.722 6.05-6.05 6.05s-6.05-2.722-6.05-6.05 2.722-6.051 6.05-6.051 6.05 2.723 6.05 6.051zm-20.571 22.84c0 3.327-2.723 6.05-6.05 6.05-3.328 0-6.051-2.723-6.051-6.05 0-3.328 2.723-6.051 6.051-6.051 3.327 0 6.05 2.723 6.05 6.051zm-33.277-28.891c0 3.328-2.723 6.051-6.051 6.051-3.327 0-6.05-2.723-6.05-6.051 0-3.328 2.723-6.05 6.05-6.05 3.328 0 6.051 2.722 6.051 6.05zm21.479 82.588c0 3.328-2.722 6.05-6.05 6.05s-6.051-2.722-6.051-6.05 2.723-6.05 6.051-6.05c3.328 0 6.05 2.722 6.05 6.05zm-29.799-38.269c0 3.328-2.722 6.051-6.05 6.051s-6.05-2.723-6.05-6.051c0-3.327 2.722-6.05 6.05-6.05s6.05 2.723 6.05 6.05zm-11.041-70.638c0 3.328-2.723 6.05-6.051 6.05-3.328 0-6.05-2.722-6.05-6.05s2.722-6.051 6.05-6.051 6.051 2.723 6.051 6.051zm-27.227-10.589c0 3.328-2.723 6.05-6.05 6.05-3.328 0-6.051-2.722-6.051-6.05s2.723-6.05 6.051-6.05c3.327 0 6.05 2.722 6.05 6.05z" fill="#BD344B"/><path d="M820.429 407.722c0 3.328-2.723 6.051-6.05 6.051-3.328 0-6.051-2.723-6.051-6.051 0-3.327 2.723-6.05 6.051-6.05 3.327 0 6.05 2.723 6.05 6.05zm-56.116 51.429c0 3.328-2.723 6.05-6.051 6.05-3.327 0-6.05-2.722-6.05-6.05s2.723-6.05 6.05-6.05c3.328 0 6.051 2.722 6.051 6.05zm-16.791 52.487c0 3.328-2.723 6.051-6.051 6.051-3.327 0-6.05-2.723-6.05-6.051 0-3.327 2.723-6.05 6.05-6.05 3.328 0 6.051 2.723 6.051 6.05zm27.529 19.06c0 3.328-2.723 6.05-6.05 6.05-3.328 0-6.051-2.722-6.051-6.05s2.723-6.051 6.051-6.051c3.327 0 6.05 2.723 6.05 6.051zm-59.748-84.858c0 3.328-2.723 6.051-6.05 6.051-3.328 0-6.051-2.723-6.051-6.051 0-3.327 2.723-6.05 6.051-6.05 3.327 0 6.05 2.723 6.05 6.05zm-3.631-44.168c0 3.328-2.723 6.051-6.05 6.051-3.328 0-6.051-2.723-6.051-6.051 0-3.327 2.723-6.05 6.051-6.05 3.327 0 6.05 2.723 6.05 6.05zm-94.537 2.421c0 3.327-2.723 6.05-6.05 6.05-3.328 0-6.051-2.723-6.051-6.05 0-3.328 2.723-6.051 6.051-6.051 3.479-.151 6.05 2.572 6.05 6.051zm-24.958 56.269c0 3.328-2.723 6.05-6.05 6.05-3.328 0-6.051-2.722-6.051-6.05s2.723-6.05 6.051-6.05c3.327 0 6.05 2.722 6.05 6.05zm-51.429 19.059c0 3.327-2.722 6.05-6.05 6.05s-6.051-2.723-6.051-6.05c0-3.328 2.723-6.051 6.051-6.051 3.328 0 6.05 2.723 6.05 6.051zm-8.469-32.372c0 3.328-2.723 6.051-6.051 6.051-3.328 0-6.05-2.723-6.05-6.051 0-3.327 2.722-6.05 6.05-6.05s6.051 2.723 6.051 6.05zm-37.06-59.747c0 3.328-2.723 6.051-6.05 6.051-3.328 0-6.051-2.723-6.051-6.051 0-3.327 2.723-6.05 6.051-6.05 3.327 0 6.05 2.723 6.05 6.05zm-23.898-23.899c0 3.328-2.723 6.05-6.051 6.05-3.328 0-6.05-2.722-6.05-6.05s2.722-6.05 6.05-6.05 6.051 2.722 6.051 6.05zm8.016-23.597c0 3.328-2.723 6.051-6.05 6.051-3.328 0-6.051-2.723-6.051-6.051 0-3.327 2.723-6.05 6.051-6.05 3.327 0 6.05 2.723 6.05 6.05zm44.622-7.562c0 3.328-2.722 6.05-6.05 6.05s-6.051-2.722-6.051-6.05 2.723-6.051 6.051-6.051c3.328 0 6.05 2.723 6.05 6.051zm52.639 62.168c0 3.327-2.723 6.05-6.051 6.05-3.327 0-6.05-2.723-6.05-6.05 0-3.328 2.723-6.051 6.05-6.051 3.328 0 6.051 2.723 6.051 6.051zm211.613-68.068c0 3.328-2.722 6.051-6.05 6.051s-6.051-2.723-6.051-6.051c0-3.327 2.723-6.05 6.051-6.05 3.328 0 6.05 2.723 6.05 6.05zm103.916 2.42c0 3.328-2.722 6.051-6.05 6.051s-6.051-2.723-6.051-6.051c0-3.327 2.723-6.05 6.051-6.05 3.328-.151 6.05 2.571 6.05 6.05zm15.579-90.907c0 3.328-2.722 6.05-6.05 6.05s-6.051-2.722-6.051-6.05 2.723-6.05 6.051-6.05c3.328 0 6.05 2.722 6.05 6.05zm-89.696 10.739c0 3.328-2.723 6.051-6.05 6.051-3.328 0-6.051-2.723-6.051-6.051 0-3.327 2.723-6.05 6.051-6.05 3.327 0 6.05 2.723 6.05 6.05zm47.948-77.747c0 3.328-2.722 6.051-6.05 6.051s-6.051-2.723-6.051-6.051c0-3.327 2.723-6.05 6.051-6.05 3.328 0 6.05 2.723 6.05 6.05zm51.279-63.379c0 3.328-2.723 6.051-6.051 6.051-3.328 0-6.05-2.723-6.05-6.051 0-3.327 2.722-6.05 6.05-6.05s6.051 2.723 6.051 6.05zm-148.236 96.959c0 3.327-2.722 6.05-6.05 6.05s-6.051-2.723-6.051-6.05c0-3.328 2.723-6.051 6.051-6.051 3.328-.151 6.05 2.572 6.05 6.051z" fill="#BD344B"/><path d="M285.875 252.076l-34.487-73.815 26.47 8.017v.151l8.017 65.647zm-33.428-72.908l32.218 69.278-7.563-61.715-24.655-7.563zm96.655 94.387l-2.42-37.059 26.319-53.849.605.152-24.504 90.756zm-1.815-36.908l2.117 33.127 22.689-84.101-24.806 50.974zm-17.093-97.109l-.151-.605 52.639-12.555 36.756 8.924-89.244 4.236zm52.639-12.555l-49.462 11.798 81.983-3.932-32.521-7.866z" fill="#C8BBD4"/><path d="M327.774 140.748l41.295-70.79 49.462 64.74-90.757 6.05zm41.446-69.731l-40.387 68.975 88.488-5.9-48.101-63.075z" fill="#C8BBD4"/><path d="M493.708 176.445L416.867 135l32.975-25.563.151.302 43.715 66.706zM417.926 135l73.815 39.932-42.05-64.588L417.926 135zm150.201 127.21l-39.781-21.782v-.151l-36-68.218 75.781 90.151zm-39.328-22.235l36.757 20.117-70.034-83.344 33.277 63.227z" fill="#C8BBD4"/><path d="M680.211 245.723l-188.168-71.698 138.403 8.471.152.151 49.613 63.076zm-184.235-70.79l182.42 69.429-48.252-61.261-134.168-8.168zm-122.974 6.504l44.319-46.74.152.152 76.235 41.142-120.706 5.446zm44.471-45.983l-42.958 45.378 117.075-5.294-74.117-40.084zM519.27 334.21l-58.084-66.555 67.764-27.832-9.68 94.387zm-57.026-66.404l56.723 64.891 9.378-92.117-66.101 27.226z" fill="#C8BBD4"/><path d="M565.707 261l-37.815-20.723 102.252-57.176L565.707 261zm-36.454-20.723l36.303 19.966 62.168-75.025-98.471 55.059z" fill="#C8BBD4"/><path d="M639.976 307.588l-.302-.151-74.874-47.042 115.109-15.731-39.933 62.924zm-73.361-46.89l73.21 45.983 38.874-61.412-112.084 15.429z" fill="#C8BBD4"/><path d="M665.538 382.614l-26.017-75.631.152-.151 124.336-103.916-98.471 179.698zm-25.411-75.328l25.411 73.815 96.353-175.462-121.764 101.647z" fill="#C8BBD4"/><path d="M762.498 206.244h-.151L629.389 182.95 850.834 64.513l-88.336 141.731zm-131.294-23.597l130.991 22.84 86.824-139.462-217.815 116.622zM586.58 461.118L488.261 387l82.588 7.261 15.731 66.857zm-96.353-73.362l95.294 71.849-15.277-64.891-80.017-6.958z" fill="#C8BBD4"/><path d="M533.488 479.118l78.656-76.387-25.866 57.782h-.151l-52.639 18.605zm76.689-73.815l-74.42 72.302 49.916-17.546 24.504-54.756zm53.698-22.235l148.992-135.53-30.555 78.958h-.151l-118.286 56.572zm147.328-133.412l-144 131.143 114.655-54.605 29.345-76.538z" fill="#C8BBD4"/><path d="M812.261 250.109l-133.563-4.84.454-.454L850.53 64.361 812.261 250.11zm-132.353-5.445l131.748 4.689L849.32 66.176 679.908 244.665zm204.354 85.16l60.353-48.101 40.689 6.201-101.042 41.9zm60.504-47.496l-56.874 45.227 94.991-39.479-38.117-5.748z" fill="#C8BBD4"/><path d="M917.085 422.395l-.151-.302-31.462-94.236 93.327 71.547-61.714 22.991zm-30.403-92.874l30.706 91.967 60.201-22.387-90.907-69.58z" fill="#C8BBD4"/><path d="M832.076 443.874l-.151-.302-50.672-118.286 136.437 96.656-85.614 21.932zm-49.31-116.621l49.764 116.016 83.95-21.327-133.714-94.689zm-13.463 204.201l-28.285-19.664 17.243-54 11.042 73.664zm-27.529-19.966l26.773 18.605-10.437-69.732-16.336 51.127z" fill="#C8BBD4"/><path d="M758.262 459.605l-.151-.152-93.176-77.596.605-.152 221.596-53.546-128.874 131.446zm-92.117-77.597l91.966 76.689L885.17 329.218l-219.025 52.79z" fill="#C8BBD4"/><path d="M917.388 422.849l-.454-.605-105.58-173.95 133.715 33.731-27.681 140.824zM812.565 249.05l104.369 172.135 27.227-138.857-131.596-33.278z" fill="#C8BBD4"/><path d="M1011.62 324.983l-68.366-43.412 40.991 6.202 27.375 37.21zm-65.492-42.353l63.222 40.235-25.256-34.487-37.966-5.748zm-45.834 283.159l-30.101-40.991 63.227-38.874-33.126 79.865zm-29.344-40.991l29.042 39.63 32.067-77.294-61.109 37.664zm-648-232.185c0 3.328-2.722 6.05-6.05 6.05s-6.05-2.722-6.05-6.05 2.722-6.051 6.05-6.051 6.05 2.572 6.05 6.051zm69.126-41.597c0 3.328-2.722 6.051-6.05 6.051s-6.05-2.723-6.05-6.051c0-3.327 2.722-6.05 6.05-6.05s6.05 2.723 6.05 6.05zm63.227 20.723c0 3.328-2.723 6.05-6.05 6.05-3.328 0-6.051-2.722-6.051-6.05s2.723-6.051 6.051-6.051c3.327 0 6.05 2.723 6.05 6.051zm-56.116-72.151c0 3.327-2.723 6.05-6.051 6.05-3.327 0-6.05-2.723-6.05-6.05 0-3.328 2.723-6.051 6.05-6.051 3.328 0 6.051 2.723 6.051 6.051zm-40.691-21.479c0 3.328-2.722 6.05-6.05 6.05s-6.05-2.722-6.05-6.05 2.722-6.05 6.05-6.05 6.05 2.571 6.05 6.05zm25.11 8.319c0 3.328-2.723 6.051-6.051 6.051-3.327 0-6.05-2.723-6.05-6.051 0-3.327 2.723-6.05 6.05-6.05 3.328 0 6.051 2.723 6.051 6.05zm95.749-3.631c0 3.328-2.723 6.051-6.051 6.051-3.327 0-6.05-2.723-6.05-6.051 0-3.327 2.723-6.05 6.05-6.05 3.328 0 6.051 2.723 6.051 6.05zm13.158 40.69c0 3.328-2.723 6.05-6.05 6.05-3.328 0-6.051-2.722-6.051-6.05s2.723-6.05 6.051-6.05c3.327 0 6.05 2.722 6.05 6.05zm-39.479 13.16c0 3.328-2.722 6.051-6.05 6.051s-6.05-2.723-6.05-6.051c0-3.328 2.722-6.05 6.05-6.05s6.05 2.722 6.05 6.05zm114.656 31.159c0 3.328-2.723 6.051-6.051 6.051-3.327 0-6.05-2.723-6.05-6.051 0-3.327 2.723-6.05 6.05-6.05 3.328-.151 6.051 2.571 6.051 6.05zM423.522 135c0 3.327-2.723 6.05-6.051 6.05-3.327 0-6.05-2.723-6.05-6.05 0-3.328 2.723-6.051 6.05-6.051 3.328 0 6.051 2.723 6.051 6.051zm-34.639-8.32c0 3.328-2.723 6.051-6.05 6.051-3.328 0-6.051-2.723-6.051-6.051 0-3.327 2.723-6.05 6.051-6.05 3.327 0 6.05 2.723 6.05 6.05zm-14.369-57.328c0 3.328-2.723 6.05-6.05 6.05-3.328 0-6.051-2.722-6.051-6.05s2.723-6.05 6.051-6.05c3.327 0 6.05 2.722 6.05 6.05zm-39.481 71.698c0 3.327-2.722 6.05-6.05 6.05s-6.05-2.723-6.05-6.05c0-3.328 2.722-6.051 6.05-6.051 3.328-.151 6.05 2.572 6.05 6.051zm120.707-31.16c0 3.328-2.722 6.051-6.05 6.051s-6.05-2.723-6.05-6.051c0-3.327 2.722-6.05 6.05-6.05s6.05 2.723 6.05 6.05zm43.11 65.799c0 3.328-2.723 6.051-6.051 6.051-3.327 0-6.05-2.723-6.05-6.051 0-3.328 2.723-6.05 6.05-6.05 3.328 0 6.051 2.722 6.051 6.05zm35.848 64.588c0 3.328-2.723 6.05-6.051 6.05-3.328 0-6.05-2.722-6.05-6.05s2.722-6.05 6.05-6.05 6.051 2.722 6.051 6.05zm37.059 20.269c0 3.327-2.723 6.05-6.05 6.05-3.328 0-6.051-2.723-6.051-6.05 0-3.328 2.723-6.051 6.051-6.051 3.327 0 6.05 2.723 6.05 6.051zm100.438 123.126c0 3.327-2.723 6.05-6.051 6.05-3.328 0-6.05-2.723-6.05-6.05 0-3.328 2.722-6.051 6.05-6.051s6.051 2.723 6.051 6.051zm-27.531-76.538c0 3.328-2.722 6.051-6.05 6.051s-6.051-2.723-6.051-6.051c0-3.327 2.723-6.05 6.051-6.05 3.328 0 6.05 2.723 6.05 6.05zm40.69-62.168c0 3.328-2.723 6.051-6.051 6.051-3.327 0-6.05-2.723-6.05-6.051 0-3.327 2.723-6.05 6.05-6.05 3.328 0 6.051 2.723 6.051 6.05zm-49.009-62.169c0 3.328-2.723 6.051-6.05 6.051-3.328 0-6.051-2.723-6.051-6.051 0-3.327 2.723-6.05 6.051-6.05 3.327 0 6.05 2.723 6.05 6.05z" fill="#C8BBD4"/><path d="M990.295 288.075c0 3.328-2.723 6.05-6.05 6.05-3.328 0-6.051-2.722-6.051-6.05s2.723-6.051 6.051-6.051c3.327 0 6.05 2.723 6.05 6.051zm26.315 35.848c0 3.328-2.72 6.051-6.05 6.051-3.32 0-6.05-2.723-6.05-6.051 0-3.327 2.73-6.05 6.05-6.05 3.33 0 6.05 2.723 6.05 6.05zm-65.794-41.898c0 3.328-2.723 6.05-6.051 6.05-3.327 0-6.05-2.722-6.05-6.05s2.723-6.05 6.05-6.05c3.328 0 6.051 2.722 6.051 6.05zm33.428 117.227c0 3.327-2.722 6.05-6.05 6.05s-6.05-2.723-6.05-6.05c0-3.328 2.722-6.051 6.05-6.051s6.05 2.723 6.05 6.051zm-60.958 22.689c0 3.328-2.722 6.05-6.05 6.05s-6.05-2.722-6.05-6.05 2.722-6.05 6.05-6.05 6.05 2.722 6.05 6.05zm15.58 64.588c0 3.328-2.722 6.05-6.05 6.05s-6.05-2.722-6.05-6.05 2.722-6.05 6.05-6.05 6.05 2.722 6.05 6.05zm-32.369 76.538c0 3.328-2.722 6.05-6.05 6.05s-6.051-2.722-6.051-6.05 2.723-6.05 6.051-6.05c3.328 0 6.05 2.722 6.05 6.05zm-29.799-38.27c0 3.328-2.722 6.051-6.05 6.051s-6.05-2.723-6.05-6.051c0-3.327 2.722-6.05 6.05-6.05s6.05 2.723 6.05 6.05zm-38.268-81.226c0 3.328-2.723 6.05-6.05 6.05-3.328 0-6.051-2.722-6.051-6.05s2.723-6.05 6.051-6.05c3.327 0 6.05 2.722 6.05 6.05zm-74.117 15.579c0 3.328-2.723 6.05-6.051 6.05-3.327 0-6.05-2.722-6.05-6.05s2.723-6.05 6.05-6.05c3.328 0 6.051 2.722 6.051 6.05zm-16.791 52.488c0 3.328-2.723 6.051-6.051 6.051-3.327 0-6.05-2.723-6.05-6.051 0-3.327 2.723-6.05 6.05-6.05 3.328 0 6.051 2.723 6.051 6.05zm27.529 19.06c0 3.328-2.723 6.05-6.05 6.05-3.328 0-6.051-2.722-6.051-6.05s2.723-6.051 6.051-6.051c3.327 0 6.05 2.723 6.05 6.051zM617.135 404.093c0 3.327-2.723 6.05-6.05 6.05-3.328 0-6.051-2.723-6.051-6.05 0-3.328 2.723-6.051 6.051-6.051 3.479-.151 6.05 2.572 6.05 6.051zm-24.958 56.269c0 3.328-2.723 6.05-6.05 6.05-3.328 0-6.051-2.722-6.051-6.05s2.723-6.05 6.051-6.05c3.327 0 6.05 2.722 6.05 6.05zm-51.429 19.058c0 3.327-2.722 6.05-6.05 6.05s-6.051-2.723-6.051-6.05c0-3.328 2.723-6.051 6.051-6.051 3.328 0 6.05 2.723 6.05 6.051zm-45.529-92.118c0 3.328-2.723 6.051-6.05 6.051-3.328 0-6.051-2.723-6.051-6.051 0-3.327 2.723-6.05 6.051-6.05 3.327 0 6.05 2.723 6.05 6.05zm-23.898-23.899c0 3.328-2.723 6.05-6.051 6.05-3.328 0-6.05-2.722-6.05-6.05s2.722-6.05 6.05-6.05 6.051 2.722 6.051 6.05zm52.638-31.159c0 3.328-2.722 6.05-6.05 6.05s-6.051-2.722-6.051-6.05 2.723-6.051 6.051-6.051c3.328 0 6.05 2.723 6.05 6.051zm52.639 62.168c0 3.327-2.723 6.05-6.051 6.05-3.327 0-6.05-2.723-6.05-6.05 0-3.328 2.723-6.051 6.05-6.051 3.328 0 6.051 2.723 6.051 6.051zm211.613-68.068c0 3.328-2.722 6.051-6.05 6.051s-6.051-2.723-6.051-6.051c0-3.327 2.723-6.05 6.051-6.05 3.328 0 6.05 2.723 6.05 6.05zm103.916 2.42c0 3.328-2.722 6.051-6.05 6.051s-6.051-2.723-6.051-6.051c0-3.327 2.723-6.05 6.051-6.05 3.328-.151 6.05 2.571 6.05 6.05zm-74.117-80.168c0 3.328-2.723 6.051-6.05 6.051-3.328 0-6.051-2.723-6.051-6.051 0-3.327 2.723-6.05 6.051-6.05 3.327 0 6.05 2.723 6.05 6.05zm-49.009-44.167c0 3.327-2.722 6.05-6.05 6.05s-6.051-2.723-6.051-6.05c0-3.328 2.723-6.051 6.051-6.051 3.328-.151 6.05 2.572 6.05 6.051zm86.218-138.707c0 3.328-2.723 6.05-6.05 6.05-3.328 0-6.051-2.722-6.051-6.05 0-3.327 2.723-6.05 6.051-6.05 3.327 0 6.05 2.723 6.05 6.05z" fill="#C8BBD4"/><path d="M285.42 252.68l-.151-.454-32.521-73.815.303.151 39.479 20.421-7.11 53.697zm-32.067-73.815l31.916 72.756 7.109-52.638-39.025-20.118z" fill="#082440"/><path d="M283.454 253.285l-32.37-35.697 24.353 10.134 8.017 25.563zm-31.462-35.092l30.857 34.034-7.563-24.353-23.294-9.681zm70.184 1.361l-29.495-20.117h.453l69.278 6.05-40.236 14.067zm-28.588-19.815l28.74 19.513 39.025-13.765-67.765-5.748z" fill="#082440"/><path d="M274.529 228.176l99.378-45.227.152.151-51.883 36.454-47.647 8.622zm98.32-44.47l-96.505 43.865 45.832-8.168 50.673-35.697zM266.664 294.428l-49.31-41.143h43.563v.151l5.747 40.992zm-48.554-40.84l48.252 40.386-5.597-40.386H218.11z" fill="#082440"/><path d="M264.093 293.369l21.176-42.504 36.454-8.925-.302.303-57.328 51.126zm21.176-42.353l-20.571 41.294 55.966-50.067-35.395 8.773zm88.941-68.672l-51.277-6.655v-.152l5.445-35.546.151.151 45.681 42.202zm-51.126-6.807l50.37 6.505-44.925-41.446-5.445 34.941zm-106.486 14.824l.151-.302 36.907-48.252-2.117 39.176-34.941 9.378zm36.907-47.798l-36.151 47.344 34.034-9.075 2.117-38.269zm-3.781 57.479l2.42-20.723 25.714 7.563-28.134 13.16zm2.571-20.42l-2.269 19.966 27.076-12.706-24.807-7.26zm101.949-19.967l2.118-36.757 31.159 30.858h-.302l-32.975 5.899zm2.269-36.303l-2.118 36 32.521-5.748-30.403-30.252z" fill="#082440"/><path d="M374.513 184.765l8.319-59.446 4.538 28.286-12.857 31.16zm8.319-57.782l-7.866 55.967 12.253-29.345-4.387-26.622zm-21.63 79.411l-38.874-29.949.151-.151 31.916-17.093v.151l6.807 47.042zm-38.42-29.949l38.118 29.344-6.656-46.134-31.462 16.79z" fill="#082440"/><path d="M424.883 193.235l-.302-.302-37.967-38.421.152-.151 30.705-19.664v.152l7.412 58.386zm-37.815-38.571l37.513 37.966-7.261-57.328-30.252 19.362z" fill="#082440"/><path d="M424.883 193.084l-70.79-33.58.151-.151 96.05-49.765-.151.302-25.26 83.194zm-70.185-33.58l70.033 33.277 25.261-82.588-95.294 49.311z" fill="#082440"/><path d="M461.338 206.697l-43.412-72.302h.151l31.916-24.656v.152l11.345 96.806zm-43.11-72.302l42.656 71.092-11.194-95.445-31.462 24.353z" fill="#082440"/><path d="M373.454 182.344l44.471-48.101h.151l75.025 41.446-119.647 6.655zm44.622-47.798l-44.017 47.495 118.286-6.504-74.269-40.991z" fill="#082440"/><path d="M528.043 240.58l-.151-.302-36-66.555h.151l64.891-20.42v.151l-28.891 87.126zm-35.698-66.706l35.698 65.95 28.588-86.219-64.286 20.269z" fill="#082440"/><path d="M492.647 175.84v-.152l20.421-96.957h.151l146.269 39.63-.303.151-166.538 57.328zm20.572-96.807l-20.269 96.504 165.63-57.176-145.361-39.328z" fill="#082440"/><path d="M679.606 245.268l-187.714-69.731h.756l138.706 7.109 48.252 62.622zM493.555 175.84l185.446 68.974-47.647-61.865-137.799-7.109z" fill="#082440"/><path d="M385.857 223.034v-.303l107.698-47.496-32.219 31.009-75.479 16.79zm106.337-47.042l-105.278 46.437 74.118-16.488 31.16-29.949z" fill="#082440"/><path d="M413.84 267.352l-28.285-44.47h.151l75.63-16.79-.151.302-47.345 60.958zm-27.832-44.319l27.984 44.017 46.89-60.504-74.874 16.487zm73.665 22.236l33.428-70.639-11.042 50.067-22.386 20.572zm32.823-68.521l-32.067 67.613 21.479-19.664 10.588-47.949z" fill="#082440"/><path d="M388.732 269.924v-.303l-1.966-44.319h.151l53.092 3.933-.302.151-50.975 40.538zm-1.664-44.168l1.967 43.865 50.521-39.933-52.488-3.932zm-44.471 75.63l5.143-28.588h.151L373 274.613l-.151.151-30.252 26.622zm5.445-28.286l-4.992 27.832 29.345-25.865-24.353-1.967z" fill="#082440"/><path d="M394.934 303.353l-5.597-34.488h.151l25.261-1.21-.152.152-19.663 35.546zm-5.446-34.185l5.446 33.58 19.21-34.79-24.656 1.21z" fill="#082440"/><path d="M476.312 301.538l-62.32-33.883h.454l47.798-1.21v.152l14.068 34.941zM414.9 267.807l60.958 33.126-13.614-34.336-47.344 1.21z" fill="#082440"/><path d="M394.177 303.201l115.563-36.907-33.126 35.395-82.437 1.512zm114.655-36.453l-113.143 36.151 80.622-1.513 32.521-34.638z" fill="#082440"/><path d="M472.379 340.261v-.152l3.479-40.235 44.773 33.58-48.252 6.807zm3.63-39.933l-3.479 39.63 47.496-6.655-44.017-32.975z" fill="#082440"/><path d="M519.118 333l-9.832-67.765h.151l56.269-4.084-.151.152L519.118 333zm-9.529-67.613l9.68 66.857 45.984-70.941-55.664 4.084zm-161.243 8.319l.151-.605 25.26-91.21 12.101 41.142-37.512 50.673zm25.411-91.059l-24.806 89.849 36.605-49.614-11.799-40.235zm-51.882 59.143l-.152-.302-29.344-42.505 30.706-23.596v.302l-1.21 66.101zm-29.194-42.807l29.042 42.051 1.211-65.193-30.253 23.142zm-76.992 93.933l44.471-40.235 26.773-1.21-.454.302-70.79 41.143zm44.622-40.084l-42.806 38.723 68.521-39.782-25.715 1.059z" fill="#082440"/><path d="M260.009 252.983l.151-.303 33.58-53.395.151.151 28.135 42.051h-.152l-61.865 11.496zm33.731-53.244l-33.277 52.79 61.109-11.345-27.832-41.445z" fill="#082440"/><path d="M348.951 273.554l-27.227-32.067 1.21-66.554.151.907 25.866 97.714zm-27.076-32.218l26.47 31.311-25.411-96.051-1.059 64.74z" fill="#082440"/><path d="M321.722 241.639l-28.285-42.051h.151l200.117-24.201-.907.302-171.076 65.95zM293.89 199.74l27.984 41.596 170.016-65.495-198 23.899z" fill="#082440"/><path d="M493.102 175.84h-.302l-164.874-35.395 121.916-30.706 43.26 66.101zm-164.269-35.395l163.664 35.093-42.807-65.496-120.857 30.403zm190.285 192.101l-.151-.151-56.269-63.53h.151l65.345-28.739v.151l-9.076 92.269zm-55.966-63.529l55.966 63.075 8.925-91.512-64.891 28.437z" fill="#082440"/><path d="M666.295 385.336l-.303-.303L527.74 240.277l.151-.152 103.614-57.479v.152l34.79 202.538zM528.194 240.277l137.647 144.302L631.202 183.1l-103.008 57.177zm359.546 91.059l-105.731-3.781-103.462-83.042.756.302 208.437 86.521zm-105.58-3.933l104.37 3.631-206.471-85.614 102.101 81.983z" fill="#082440"/><path d="M832.227 441.302l-50.37-114.05 135.681 93.63h-.302l-85.009 20.42zm-49.765-113.445L832.53 441l84.554-20.269-134.622-92.874z" fill="#082440"/><path d="M916.934 421.033l.151-.303 67.16-134.47-4.841 112.991h-.151l-62.319 21.782zm67.008-133.563l-66.555 133.109 61.866-21.328 4.689-111.781z" fill="#082440"/><path d="M886.53 331.336l97.715-44.622v.151l26.475 36h-.16l-124.03 8.471zm97.563-44.32l-96.353 44.017 122.52-8.47-26.167-35.547zm-317.95 98.32l-.151-.454-109.513-231.731.454.303 122.521 91.512-13.311 140.37zM557.085 153.908l109.058 230.521 13.16-139.311-122.218-91.21z" fill="#082440"/><path d="M932.967 484.411l-.302-.151-100.437-43.109v-.152l54.907-110.117.151.302 45.681 153.227zM832.53 440.999l100.135 42.958-45.53-152.319-54.605 109.361zm-74.571 18.757l24.655-132.655.152.302 50.218 116.017-75.025 16.336zm24.807-131.899l-24.504 131.597 74.42-16.185-49.916-115.412z" fill="#082440"/><path d="M704.867 402.58l-38.118-19.664.151-.152 116.471-55.663-78.504 75.479zm-37.664-19.664l37.512 19.361 77.294-74.42-114.806 55.059zm41.597 62.318l-2.723-42.806h.151l58.992 2.722-56.42 40.084zm-2.572-42.504l2.723 42.051 55.513-39.328-58.236-2.723z" fill="#082440"/><path d="M760.531 462.327l-.152-.151-93.63-78.655 98.017 22.84v.151l-4.235 55.815zm-92.723-78.353l92.571 77.748 4.236-55.21-96.807-22.538zm-81.833 76.689l-15.731-66.252h.151l39.631 9.53v.151l-24.051 56.571zm-15.277-66.101l15.428 65.194 23.748-55.664-39.176-9.53z" fill="#082440"/><path d="M570.697 394.562h-.302l-233.849-7.26.756-.151 181.815-55.059 51.58 62.47zm-232.638-7.411l232.184 7.109-51.126-61.866-181.058 54.757z" fill="#082440"/><path d="M396.295 560.042l-.454-.454-89.697-102.857 31.159-69.58.151.303 58.841 172.588zM306.446 456.58l89.244 102.252-58.236-171.227-31.008 68.975z" fill="#082440"/><path d="M395.689 559.74l.152-.302 45.529-90.908 145.21-8.47-.454.302-190.437 99.378zm45.681-91.059l-45.227 90.454 189.227-98.773-144 8.319zm-134.924-11.799h-.303l-141.428-32.37.302-.151 90.908-51.428v.151l50.521 83.798zm-140.975-32.521l140.521 32.219-50.067-83.496-90.454 51.277z" fill="#082440"/><path d="M256.077 373.386l-.152-.453-39.479-80.773 43.866-39.631v.303l-4.235 120.554zm-39.328-81.075l39.176 80.168 4.084-119.345-43.26 39.177zM532.58 700.715l-132.05-31.16v-.151l-4.841-110.269.152.302L532.58 700.715zm-131.748-31.311l130.992 31.008-135.832-140.521 4.84 109.513z" fill="#082440"/><path d="M380.412 837.908l-.151-1.059-43.11-449.546h.303l63.378 282.252-20.42 168.353zm-42.807-448.639l42.807 446.521 20.118-166.235-62.925-280.286zm293.9-206.319l-78.201-28.891h.605L1050.04 117v.303L631.505 182.95zm-77.142-28.74l77.142 28.437 415.515-65.193-492.657 36.756zm104.52-35.849l-75.026-37.059 267.278-16.185-1.059.303-191.193 52.941zm-74.118-36.908l74.118 36.605 189.983-52.487-264.101 15.882z" fill="#082440"/><path d="M728.766 78.126l-105.882-25.26 182.571 3.932-76.689 21.328zM625.153 53.319l103.613 24.656 75.025-20.723-178.638-3.933z" fill="#082440"/><path d="M583.857 81.605l81.227-49.462 61.412 44.924h-.302l-142.337 4.538zm81.379-49.311l-80.32 49.008 141.126-4.538-60.806-44.47z" fill="#082440"/><path d="M766.429 129.101h-.303l-107.546-10.74.303-.151 67.462-41.445v.15l40.084 52.186zM659.336 118.21l106.488 10.588-39.631-51.73-66.857 41.142z" fill="#082440"/><path d="M632.867 183.857L510.951 78.731l.454.15 147.781 39.328v.152l-26.319 65.496zM511.859 79.184l120.857 104.219 26.017-65.194-146.874-39.025z" fill="#082440"/><path d="M556.177 154.361l-105.731-44.47.454-.151 132.807-25.866-.151.151-27.379 70.336zm-104.823-44.47l104.672 44.017 27.227-69.731-131.899 25.714z" fill="#082440"/><path d="M1064.71 295.941l-15.27-74.572 40.08 26.773-24.81 47.799zm-14.52-73.211l14.68 71.395 23.74-45.831-38.42-25.564z" fill="#BD344B"/><path d="M1087.56 317.874l-23.15-24.051-14.97-71.697.6-.151 37.52 95.899zm-22.54-24.353l20.87 21.781-35.09-89.697 14.22 67.916z" fill="#BD344B"/><path d="M1038.4 349.335l-5.3-31.916 33.88-23.294-28.58 55.21zm-4.69-31.765l4.99 29.799 26.62-51.429-31.61 21.63z" fill="#BD344B"/><path d="M1086.35 318.629l.15-3.176-53.7 2.269 56.72-70.488-2.27 67.463h.46l-1.36 3.932zm2.42-69.428l-54.61 68.067 52.49-2.269 2.12-65.798zM892.883 614.949l-.151-.303-38.42-77.748 65.193 59.597-26.622 18.454zm-36.605-75.479l36.756 74.42 25.412-17.546-62.168-56.874z" fill="#BD344B"/><path d="M929.489 627.504l-36.757-12.857 8.32-52.336 28.437 65.193zm-36.151-13.311l34.941 12.252-27.076-62.017-7.865 49.765zm59.596-14.673l-16.639-32.37 49.916 20.269-33.277 12.101zm-15.429-31.16l15.58 30.404 31.311-11.345-46.891-19.059z" fill="#BD344B"/><path d="M953.386 599.368l-.605-.302 45.681-125.546.605.151-11.647 51.126-34.034 74.571zm44.017-121.008l-41.445 113.899 30.857-67.613 10.588-46.286z" fill="#BD344B"/><path d="M1039.91 489.403l-42.354-12.857 8.314-35.849 34.04 48.706zm-41.598-13.311l40.088 12.252-32.22-46.285-7.868 34.033z" fill="#BD344B"/><path d="M1031.14 532.361l-25.87-92.572 34.34 49.16-8.47 43.412zm-24.36-89.395l24.36 86.672 7.86-40.689-32.22-45.983zm17.24 168.353l-39.474-23.9 53.244-20.117-13.77 44.017zm-37.961-23.748l37.661 22.84 13.16-42.05-50.821 19.21z" fill="#BD344B"/><path d="M985.605 588.024l-50.218-23.748 52.033-40.084-1.815 63.832zm-49.008-23.899L985 586.965l1.815-61.714-50.218 38.874zm76.543 89.245l-87.13-26.925 121.31 10.135-34.18 16.79zm-81.534-25.866l81.534 25.109 32.06-15.579-113.594-9.53zm196.484 12.404L1035.82 567l60.81 19.361v.152l31.46 53.395zm-89.24-71.244l87.13 68.823-29.65-50.521-57.48-18.302zm142.49 80.621l-87.73-66.555 79.41 33.278 8.32 33.277zm-83.65-64.134l82.59 62.621-7.87-31.31-74.72-31.311z" fill="#BD344B"/><path d="M1181.18 648.983l-55.21-10.134 46.9-22.992 8.31 33.126zm-53.24-10.437l52.49 9.681-7.87-31.462-44.62 21.781zm-.91 137.495l-7.56-62.924 18.76-54.454-11.2 117.378zm-6.8-62.924l6.8 57.176 10.29-106.79-17.09 49.614z" fill="#BD344B"/><path d="M1126.58 774.226l.15-1.059 10.89-113.294 28.29 64.891-39.33 49.462zm11.34-111.933l-10.58 109.967 37.81-47.496-27.23-62.471z" fill="#BD344B"/><path d="M1186.18 775.134l-67.31-62.773 47.04 11.95v.151l20.27 50.672zm-65.2-61.411l63.69 59.294-19.21-47.95-44.48-11.344z" fill="#BD344B"/><path d="M1076.21 735.201l16.64-41.445 27.68 19.361-44.32 22.084zm16.94-40.538l-15.73 39.328 41.9-20.874-26.17-18.454z" fill="#BD344B"/><path d="M1093.15 694.814l-32.37-30.403 38.72-1.815-6.35 32.218zm-30.86-29.949l30.41 28.739 6.05-30.403-36.46 1.664z" fill="#BD344B"/><path d="M1077.42 735.958l-35.09-47.95 19.36-24.05 15.73 72zm-34.34-47.95l33.13 45.227-14.82-67.916-18.31 22.689z" fill="#BD344B"/><path d="M1024.93 762.277l-28.283-45.68 46.593-29.194-18.31 74.874zm-27.526-45.529l27.226 44.017 17.55-72.152-44.776 28.135z" fill="#BD344B"/><path d="M1047.32 812.495l-22.84-51.126.3-.151 52.64-27.227-30.1 78.504zm-22.08-50.823l21.93 49.311 29.04-75.63-50.97 26.319z" fill="#BD344B"/><path d="M1061.08 845.773l15.43-111.782.46.303 50.52 38.722-.15.303-66.26 72.454zm16.04-110.572l-14.98 108.757 64.59-70.79-49.61-37.967z" fill="#BD344B"/><path d="M1146.7 840.327l-20.12-67.462h.45l58.84.908-39.17 66.554zm-19.21-66.857l19.36 65.345 37.97-64.437-57.33-.908z" fill="#BD344B"/><path d="M1102.83 867.705l-.15-.151-42.2-22.991h1.06l86.37-5.446-45.08 28.588zm-40.23-22.537l40.23 21.781 42.81-27.076-83.04 5.295z" fill="#BD344B"/><path d="M1061.54 845.47l-14.67-33.883.3-.151 81.23-39.176-66.86 73.21zm-13.92-33.58l14.07 32.521 64.13-70.185-78.2 37.664zm-83.948-29.345l-.151-.302-17.244-46.286 76.843 27.378-59.448 19.21zm-16.336-45.68l16.639 44.924 57.175-18.454-73.814-26.47z" fill="#BD344B"/><path d="M992.714 830.799l-46.437-94.689.303-.151 50.672-19.967v.454l-4.538 114.353zm-45.529-94.235l45.075 91.815 4.387-111.328-49.462 19.513z" fill="#BD344B"/><path d="M941.136 830.345l6.353-91.664 75.331 24.504-.46.302-81.224 66.858zm6.806-90.908l-6.201 89.546 79.719-65.496-73.518-24.05z" fill="#BD344B"/><path d="M992.412 827.319l-.151-.152-32.823-46.437 88.792 31.16-55.818 15.429zm-31.311-45.53l31.614 44.773 53.545-14.974-85.159-29.799z" fill="#BD344B"/><path d="M940.53 830.041l82.44-67.765-32.978 66.858-49.462.907zm80.77-65.647l-78.955 64.891 47.345-.908 31.61-63.983zm67.16 135.681l14.07-32.975h.15l46.14-29.193-60.36 62.168zm14.68-32.521l-12.71 29.799 54.45-56.118-41.74 26.319zm86.82 57.63l85.16-90.605 22.84 25.563-108 65.042zm85.01-89.697l-81.68 86.975 103.61-62.32-21.93-24.655z" fill="#BD344B"/><path d="M1259.24 892.361l15.58-57.932 22.99 25.714-.3.151-38.27 32.067zm15.88-56.722l-14.82 55.059 36.75-30.555-21.93-24.504zM942.345 566.091c0 3.328-2.723 6.051-6.05 6.051-3.328 0-6.051-2.723-6.051-6.051 0-3.327 2.723-6.05 6.051-6.05 3.327 0 6.05 2.723 6.05 6.05zm17.546 32.825c0 3.327-2.723 6.05-6.051 6.05-3.327 0-6.05-2.723-6.05-6.05 0-3.328 2.723-6.051 6.05-6.051 3.328 0 6.051 2.723 6.051 6.051zm31.464-11.798c0 3.328-2.723 6.05-6.051 6.05-3.327 0-6.05-2.722-6.05-6.05s2.723-6.051 6.05-6.051c3.328 0 6.051 2.723 6.051 6.051zm.906-61.866c0 3.327-2.723 6.05-6.05 6.05-3.328 0-6.051-2.723-6.051-6.05 0-3.328 2.723-6.051 6.051-6.051 3.327-.151 6.05 2.572 6.05 6.051zm18.609-85.765c0 3.328-2.73 6.05-6.05 6.05-3.33 0-6.054-2.722-6.054-6.05s2.724-6.05 6.054-6.05c3.32 0 6.05 2.722 6.05 6.05zm-6.21 34.336c0 3.328-2.72 6.05-6.046 6.05-3.328 0-6.051-2.722-6.051-6.05s2.723-6.051 6.051-6.051c3.326 0 6.046 2.723 6.046 6.051zm32.07 58.085c0 3.328-2.72 6.05-6.05 6.05-3.33 0-6.05-2.722-6.05-6.05s2.72-6.05 6.05-6.05c3.48-.152 6.05 2.571 6.05 6.05zm7.72-42.052c0 3.328-2.73 6.051-6.05 6.051-3.33 0-6.05-2.723-6.05-6.051 0-3.328 2.72-6.05 6.05-6.05 3.32 0 6.05 2.722 6.05 6.05zm-119.5 106.337c0 3.328-2.722 6.05-6.05 6.05s-6.05-2.722-6.05-6.05 2.722-6.05 6.05-6.05 6.05 2.722 6.05 6.05zm-65.042-58.69c0 3.327-2.722 6.05-6.05 6.05s-6.05-2.723-6.05-6.05c0-3.328 2.722-6.051 6.05-6.051 3.328-.151 6.05 2.572 6.05 6.051zm39.782 74.118c0 3.327-2.723 6.05-6.051 6.05-3.327 0-6.05-2.723-6.05-6.05 0-3.328 2.723-6.051 6.05-6.051 3.328 0 6.051 2.723 6.051 6.051zm34.336 14.673c0 3.327-2.723 6.05-6.051 6.05-3.328 0-6.05-2.723-6.05-6.05 0-3.328 2.722-6.051 6.05-6.051s6.051 2.723 6.051 6.051zm84.554 25.866c0 3.328-2.72 6.05-6.05 6.05-3.33 0-6.05-2.722-6.05-6.05s2.72-6.051 6.05-6.051c3.33 0 6.05 2.723 6.05 6.051zm32.98-14.673c0 3.328-2.73 6.05-6.05 6.05-3.33 0-6.05-2.722-6.05-6.05s2.72-6.05 6.05-6.05c3.32 0 6.05 2.722 6.05 6.05zm-21.79-26.622c0 3.328-2.72 6.05-6.05 6.05-3.32 0-6.05-2.722-6.05-6.05s2.73-6.051 6.05-6.051c3.33 0 6.05 2.723 6.05 6.051zm12.56-42.654c0 3.327-2.72 6.05-6.05 6.05-3.33 0-6.05-2.723-6.05-6.05 0-3.328 2.72-6.051 6.05-6.051 3.33 0 6.05 2.723 6.05 6.051zm59.44 17.545c0 3.327-2.72 6.05-6.05 6.05-3.32 0-6.05-2.723-6.05-6.05 0-3.328 2.73-6.051 6.05-6.051 3.33-.151 6.05 2.572 6.05 6.051zm77.75 31.462c0 3.328-2.72 6.051-6.05 6.051-3.33 0-6.05-2.723-6.05-6.051 0-3.327 2.72-6.05 6.05-6.05 3.33 0 6.05 2.723 6.05 6.05zm5.6 31.461c0 3.328-2.72 6.051-6.05 6.051-3.33 0-6.05-2.723-6.05-6.051 0-3.327 2.72-6.05 6.05-6.05 3.33 0 6.05 2.723 6.05 6.05zm-53.25-9.832c0 3.328-2.72 6.051-6.05 6.051-3.32 0-6.05-2.723-6.05-6.051 0-3.327 2.73-6.05 6.05-6.05 3.33 0 6.05 2.723 6.05 6.05zm13.31 22.388c0 3.328-2.72 6.05-6.05 6.05-3.32 0-6.05-2.722-6.05-6.05s2.73-6.05 6.05-6.05c3.33 0 6.05 2.722 6.05 6.05zm-20.26 51.73c0 3.328-2.73 6.051-6.05 6.051-3.33 0-6.05-2.723-6.05-6.051 0-3.327 2.72-6.05 6.05-6.05 3.32 0 6.05 2.723 6.05 6.05zm-26.63-18.908c0 3.328-2.72 6.051-6.05 6.051-3.32 0-6.05-2.723-6.05-6.051 0-3.327 2.73-6.05 6.05-6.05 3.33 0 6.05 2.723 6.05 6.05zm6.96-30.552c0 3.327-2.72 6.05-6.05 6.05-3.32 0-6.05-2.723-6.05-6.05 0-3.328 2.73-6.051 6.05-6.051 3.33 0 6.05 2.723 6.05 6.051zm-37.06.756c0 3.327-2.72 6.05-6.05 6.05-3.32 0-6.05-2.723-6.05-6.05 0-3.328 2.73-6.051 6.05-6.051 3.33-.151 6.05 2.572 6.05 6.051zm-20.26 24.957c0 3.328-2.73 6.051-6.06 6.051-3.32 0-6.05-2.723-6.05-6.051 0-3.327 2.73-6.05 6.05-6.05 3.33 0 6.06 2.723 6.06 6.05zm-44.63 27.984c0 3.328-2.72 6.05-6.047 6.05-3.328 0-6.051-2.722-6.051-6.05s2.723-6.051 6.051-6.051c3.327 0 6.047 2.723 6.047 6.051zm-48.248 21.024c0 3.328-2.723 6.051-6.05 6.051-3.328 0-6.051-2.723-6.051-6.051 0-3.327 2.723-6.05 6.051-6.05 3.327-.151 6.05 2.571 6.05 6.05zm-5.597 90.909c0 3.327-2.722 6.05-6.05 6.05s-6.051-2.723-6.051-6.05c0-3.328 2.723-6.051 6.051-6.051 3.328-.151 6.05 2.572 6.05 6.051zm49.613-.756c0 3.327-2.723 6.05-6.051 6.05-3.328 0-6.05-2.723-6.05-6.05 0-3.328 2.722-6.051 6.05-6.051s6.051 2.723 6.051 6.051zm55.212-16.035c0 3.327-2.72 6.05-6.05 6.05-3.33 0-6.05-2.723-6.05-6.05 0-3.328 2.72-6.051 6.05-6.051 3.33-.151 6.05 2.572 6.05 6.051zm14.06 32.067c0 3.328-2.72 6.05-6.05 6.05-3.32 0-6.05-2.722-6.05-6.05s2.73-6.051 6.05-6.051c3.33 0 6.05 2.723 6.05 6.051zm40.54 22.992c0 3.328-2.72 6.05-6.05 6.05-3.33 0-6.05-2.722-6.05-6.05s2.72-6.05 6.05-6.05c3.33 0 6.05 2.722 6.05 6.05zm42.05-27.983c0 3.327-2.72 6.05-6.05 6.05-3.32 0-6.05-2.723-6.05-6.05 0-3.328 2.73-6.051 6.05-6.051 3.33 0 6.05 2.723 6.05 6.051zm41.15-64.286c0 3.328-2.73 6.051-6.05 6.051-3.33 0-6.06-2.723-6.06-6.051 0-3.327 2.73-6.05 6.06-6.05 3.32 0 6.05 2.723 6.05 6.05zm-21.63-51.126c0 3.328-2.73 6.051-6.05 6.051-3.33 0-6.06-2.723-6.06-6.051 0-3.327 2.73-6.05 6.06-6.05 3.32 0 6.05 2.723 6.05 6.05zm-37.06 48.252c0 3.328-2.73 6.051-6.05 6.051-3.33 0-6.05-2.723-6.05-6.051 0-3.327 2.72-6.05 6.05-6.05 3.32 0 6.05 2.723 6.05 6.05zm-49.77-37.664c0 3.328-2.72 6.051-6.05 6.051-3.32 0-6.05-2.723-6.05-6.051 0-3.327 2.73-6.05 6.05-6.05 3.33 0 6.05 2.723 6.05 6.05zm-53.85 27.378c0 3.328-2.72 6.051-6.05 6.051-3.32 0-6.05-2.723-6.05-6.051 0-3.327 2.73-6.05 6.05-6.05 3.33 0 6.05 2.723 6.05 6.05zm-61.56 19.514c0 3.328-2.722 6.05-6.05 6.05s-6.051-2.722-6.051-6.05 2.723-6.05 6.051-6.05c3.328 0 6.05 2.722 6.05 6.05zm126.61 115.411c0 3.328-2.73 6.05-6.05 6.05-3.33 0-6.06-2.722-6.06-6.05s2.73-6.05 6.06-6.05c3.32 0 6.05 2.722 6.05 6.05zm103.76 26.319c0 3.327-2.72 6.05-6.05 6.05-3.33 0-6.05-2.723-6.05-6.05 0-3.328 2.72-6.051 6.05-6.051 3.33-.151 6.05 2.572 6.05 6.051z" fill="#BD344B"/><path d="M1265.74 889.638c0 3.328-2.72 6.051-6.05 6.051-3.33 0-6.05-2.723-6.05-6.051 0-3.327 2.72-6.05 6.05-6.05 3.33-.151 6.05 2.571 6.05 6.05zm36.3-28.739c0 3.328-2.72 6.05-6.05 6.05-3.33 0-6.05-2.722-6.05-6.05s2.72-6.05 6.05-6.05c3.33 0 6.05 2.722 6.05 6.05zm-21.48-24.051c0 3.328-2.72 6.051-6.05 6.051-3.32 0-6.05-2.723-6.05-6.051 0-3.327 2.73-6.05 6.05-6.05 3.33-.151 6.05 2.571 6.05 6.05zM1044.14 346.31c0 3.328-2.72 6.051-6.05 6.051-3.32 0-6.05-2.723-6.05-6.051 0-3.328 2.73-6.05 6.05-6.05 3.33 0 6.05 2.722 6.05 6.05zm48.56-29.798c0 3.328-2.72 6.051-6.05 6.051-3.33 0-6.05-2.723-6.05-6.051 0-3.327 2.72-6.05 6.05-6.05 3.33-.151 6.05 2.571 6.05 6.05zm2.12-67.916c0 3.328-2.73 6.051-6.05 6.051-3.33 0-6.06-2.723-6.06-6.051 0-3.327 2.73-6.05 6.06-6.05 3.32 0 6.05 2.723 6.05 6.05zm-39.18-26.622c0 3.328-2.72 6.051-6.05 6.051-3.33 0-6.05-2.723-6.05-6.051 0-3.327 2.72-6.05 6.05-6.05 3.33 0 6.05 2.723 6.05 6.05zm16.18 72.151c0 3.328-2.72 6.05-6.05 6.05-3.32 0-6.05-2.722-6.05-6.05s2.73-6.051 6.05-6.051c3.33-.151 6.05 2.572 6.05 6.051zm-32.21 24.353c0 3.328-2.73 6.051-6.05 6.051-3.33 0-6.06-2.723-6.06-6.051 0-3.328 2.73-6.05 6.06-6.05 3.32 0 6.05 2.722 6.05 6.05z" fill="#BD344B"/><path d="M900.446 563.219l-.151-.151-29.949-38.269h.151l62.47-39.026-.151.303-32.37 77.143zm-29.647-38.42l29.647 37.966 32.068-76.538-61.715 38.572z" fill="#082440"/><path d="M1023.72 611.017l-124.03-48.555-29.647-38.117 153.677 86.369v.303zm-123.879-48.706l122.369 47.798-151.108-85.008 28.739 37.21z" fill="#082440"/><path d="M870.346 525.1l46.89-104.067 15.58 65.042-62.47 39.025zm46.89-103.31l-46.285 102.705 61.714-38.571-15.429-64.134zm227.954 419.445l-.31-.151-121.61-79.412h.45l103.62 10.437v.151l17.85 68.975zm-121.01-79.109l120.55 78.655-17.54-68.37-103.01-10.285z" fill="#082440"/><path d="M1037.64 346.916l11.8-126.151 37.66 95.899-.15.151-49.31 30.101zm12.1-123.58l-11.5 122.521 47.95-29.496-36.45-93.025zM900.295 567l-48.706-25.714 17.244-18.757L900.295 567zm-47.799-26.017l45.832 24.202-29.495-41.748-16.337 17.546zm171.684 70.337l-.61-.152-70.334-11.949 32.824-74.723 38.12 86.824zm-69.885-12.555l68.975 11.798-37.059-84.554-31.916 72.756z" fill="#C8BBD4"/><path d="M927.824 626.748l-27.378-65.193 53.849 37.361-26.471 27.832zm-26.016-63.529l26.319 62.47 25.26-26.622-51.579-35.848z" fill="#C8BBD4"/><path d="M1024.33 611.47l-124.035-49.008 86.067-37.664.151.302 37.817 86.37zm-122.522-49.008l121.312 47.949-37.212-84.706-84.1 36.757zm243.072 278.47l-17.85-74.874.15-.151 37.82-42.958-20.12 117.983zm-17.24-74.571l17.09 71.697 19.21-112.84-36.3 41.143z" fill="#C8BBD4"/><path d="M1145.34 840.176l-122.83-78.655 104.83 10.436 18 68.219zm-120.41-77.748l119.35 76.387-17.55-66.252-101.8-10.135z" fill="#C8BBD4"/><path d="M1127.19 772.563h-.16l-104.97-10.437 143.09-38.571-37.96 49.008zm-101.8-10.739l101.49 10.134 36.76-47.344-138.25 37.21z" fill="#C8BBD4"/><path d="M1048.23 815.218l-86.524-33.731h.605l165.629-9.227-.45.302-79.26 42.656zm-85.465-33.58l85.465 33.277 78.65-42.504-164.115 9.227zm222.205-6.352l-107.4-40.538-34.64-44.017.61.303 141.58 84.101-.15.151zm-107.25-40.689l106.04 40.084-139.77-83.042 33.73 42.958z" fill="#082440"/><path d="M962.16 781.94l.303-.302 81.227-91.059-20.27 72.605-61.26 18.756zm80.92-90.302l-80.164 89.849 60.204-18.454 19.96-71.395zm4.39 121.462l.15-.303 29.95-78.353.15.152 51.43 40.084-.15.151-81.53 38.269zm30.1-78.202l-29.64 77.748 80.62-37.966-50.98-39.782zm108.61 40.388h-.16l-58.99-2.874.15-.152 40.84-43.563v.152l18.16 46.437zm-58.54-3.026l58.23 2.723-17.85-45.832-40.38 43.109z" fill="#082440"/><path d="M959.891 598.916c0 3.327-2.723 6.05-6.051 6.05-3.327 0-6.05-2.723-6.05-6.05 0-3.328 2.723-6.051 6.05-6.051 3.328 0 6.051 2.723 6.051 6.051zm32.37-73.664c0 3.327-2.723 6.05-6.05 6.05-3.328 0-6.051-2.723-6.051-6.05 0-3.328 2.723-6.051 6.051-6.051 3.327-.151 6.05 2.572 6.05 6.051zm-132.353 12.251c0 3.327-2.722 6.05-6.05 6.05s-6.05-2.723-6.05-6.05c0-3.328 2.722-6.051 6.05-6.051 3.328-.151 6.05 2.572 6.05 6.051zm74.118 88.791c0 3.327-2.723 6.05-6.051 6.05-3.328 0-6.05-2.723-6.05-6.05 0-3.328 2.722-6.051 6.05-6.051s6.051 2.723 6.051 6.051zm95.744-15.429c0 3.328-2.72 6.05-6.05 6.05-3.32 0-6.05-2.722-6.05-6.05s2.73-6.051 6.05-6.051c3.33 0 6.05 2.723 6.05 6.051zm121.16 228.555c0 3.327-2.72 6.05-6.05 6.05-3.32 0-6.05-2.723-6.05-6.05 0-3.328 2.73-6.051 6.05-6.051 3.33 0 6.05 2.723 6.05 6.051zm19.52-115.412c0 3.328-2.73 6.051-6.05 6.051-3.33 0-6.06-2.723-6.06-6.051 0-3.327 2.73-6.05 6.06-6.05 3.32 0 6.05 2.723 6.05 6.05zm-37.06 48.252c0 3.328-2.73 6.051-6.05 6.051-3.33 0-6.05-2.723-6.05-6.051 0-3.327 2.72-6.05 6.05-6.05 3.32 0 6.05 2.723 6.05 6.05zm-103.62-10.286c0 3.328-2.72 6.051-6.05 6.051-3.32 0-6.05-2.723-6.05-6.051 0-3.327 2.73-6.05 6.05-6.05 3.33 0 6.05 2.723 6.05 6.05zm168.81 161.244c0 3.327-2.72 6.05-6.05 6.05-3.33 0-6.05-2.723-6.05-6.05 0-3.328 2.72-6.051 6.05-6.051 3.33-.151 6.05 2.572 6.05 6.051zM1044.14 346.31c0 3.328-2.72 6.051-6.05 6.051-3.32 0-6.05-2.723-6.05-6.051 0-3.328 2.73-6.05 6.05-6.05 3.33 0 6.05 2.722 6.05 6.05zm48.56-29.798c0 3.328-2.72 6.051-6.05 6.051-3.33 0-6.05-2.723-6.05-6.051 0-3.327 2.72-6.05 6.05-6.05 3.33-.151 6.05 2.571 6.05 6.05zm-37.06-94.538c0 3.328-2.72 6.051-6.05 6.051-3.33 0-6.05-2.723-6.05-6.051 0-3.327 2.72-6.05 6.05-6.05 3.33 0 6.05 2.723 6.05 6.05z" fill="#C8BBD4"/><path d="M906.496 563.067c0 3.328-2.722 6.05-6.05 6.05s-6.05-2.722-6.05-6.05 2.722-6.05 6.05-6.05 6.05 2.722 6.05 6.05zm-29.798-38.269c0 3.328-2.723 6.051-6.051 6.051-3.328 0-6.05-2.723-6.05-6.051 0-3.327 2.722-6.05 6.05-6.05s6.051 2.723 6.051 6.05zm153.072 86.068c0 3.328-2.72 6.05-6.05 6.05-3.32 0-6.05-2.722-6.05-6.05s2.73-6.051 6.05-6.051c3.33 0 6.05 2.723 6.05 6.051zm121.16 228.555c0 3.327-2.72 6.05-6.05 6.05-3.33 0-6.05-2.723-6.05-6.05 0-3.328 2.72-6.051 6.05-6.051 3.33 0 6.05 2.723 6.05 6.051zm-13.76-67.161a9.814 9.814 0 01-9.83 9.832 9.817 9.817 0 01-9.84-9.832 9.816 9.816 0 019.84-9.832c5.44 0 9.83 4.386 9.83 9.832zm54.45 2.874c0 3.781-3.02 6.655-6.65 6.655-3.63 0-6.66-3.025-6.66-6.655 0-3.782 3.03-6.655 6.66-6.655 3.63 0 6.65 3.025 6.65 6.655zm-222.35 6.656c0 3.781-3.025 6.655-6.656 6.655-3.781 0-6.655-3.025-6.655-6.655 0-3.782 3.025-6.656 6.655-6.656 3.631-.151 6.656 2.874 6.656 6.656zm60.5-19.816c0 3.328-2.72 6.051-6.05 6.051-3.32 0-6.05-2.723-6.05-6.051 0-3.327 2.73-6.05 6.05-6.05 3.33 0 6.05 2.723 6.05 6.05zm19.67-70.789c0 3.328-2.72 6.051-6.05 6.051-3.33 0-6.05-2.723-6.05-6.051 0-3.327 2.72-6.05 6.05-6.05 3.33-.151 6.05 2.571 6.05 6.05zm4.38 121.614c0 3.328-2.72 6.051-6.05 6.051-3.33 0-6.05-2.723-6.05-6.051 0-3.327 2.72-6.05 6.05-6.05 3.33 0 6.05 2.723 6.05 6.05zm29.8-78.656c0 3.328-2.72 6.051-6.05 6.051-3.33 0-6.05-2.723-6.05-6.051 0-3.327 2.72-6.05 6.05-6.05 3.33-.151 6.05 2.571 6.05 6.05zm-28.89-618.201c0 3.328-2.72 6.051-6.05 6.051-3.33 0-6.05-2.723-6.05-6.051 0-3.328 2.72-6.05 6.05-6.05 3.33-.152 6.05 2.571 6.05 6.05zM226.127 292.613c0 5.143-4.235 9.379-9.378 9.379s-9.378-4.236-9.378-9.379c0-5.142 4.235-9.378 9.378-9.378s9.378 4.236 9.378 9.378zm70.186-41.596c0 5.748-4.689 10.286-10.286 10.286-5.748 0-10.286-4.689-10.286-10.286 0-5.596 4.689-10.286 10.286-10.286 5.597 0 10.286 4.538 10.286 10.286zm62.924 20.723c0 5.597-4.538 9.983-9.983 9.983-5.597 0-9.983-4.538-9.983-9.983 0-5.597 4.537-9.983 9.983-9.983 5.445 0 9.983 4.386 9.983 9.983zm-60.051-72.151c0 3.327-2.723 6.05-6.051 6.05-3.327 0-6.05-2.723-6.05-6.05 0-3.328 2.723-6.051 6.05-6.051 3.328 0 6.051 2.723 6.051 6.051zm80.169-16.791c0 3.328-2.723 6.051-6.051 6.051-3.327 0-6.05-2.723-6.05-6.051 0-3.327 2.723-6.05 6.05-6.05 3.328 0 6.051 2.723 6.051 6.05zm-16.942-58.991c0 3.328-2.722 6.051-6.05 6.051s-6.051-2.723-6.051-6.051c0-3.327 2.723-6.05 6.051-6.05 3.328 0 6.05 2.723 6.05 6.05zm29.344 2.873c0 4.992-3.933 8.925-8.924 8.925-4.992 0-8.925-3.933-8.925-8.925 0-4.991 3.933-8.924 8.925-8.924 4.84 0 8.924 3.933 8.924 8.924zm6.353 96.808c0 6.504-5.294 11.798-11.798 11.798-6.504 0-11.798-5.294-11.798-11.798 0-6.504 5.294-11.799 11.798-11.799 6.504 0 11.798 5.295 11.798 11.799zm71.396 44.319a7.812 7.812 0 01-7.865 7.866 7.812 7.812 0 01-7.866-7.866 7.812 7.812 0 017.866-7.866 7.812 7.812 0 017.865 7.866zm-45.983-132.806c0 3.327-2.723 6.05-6.051 6.05-3.327 0-6.05-2.723-6.05-6.05 0-3.328 2.723-6.051 6.05-6.051 3.328 0 6.051 2.723 6.051 6.051zm-88.488 6.05c0 3.327-2.722 6.05-6.05 6.05s-6.05-2.723-6.05-6.05c0-3.328 2.722-6.051 6.05-6.051 3.328-.151 6.05 2.572 6.05 6.051zm120.705-31.16c0 3.328-2.722 6.051-6.05 6.051s-6.05-2.723-6.05-6.051c0-3.327 2.722-6.05 6.05-6.05s6.05 2.723 6.05 6.05zm47.799 65.799c0 5.899-4.841 10.739-10.74 10.739s-10.739-4.84-10.739-10.739c0-5.899 4.84-10.74 10.739-10.74 5.899 0 10.74 4.841 10.74 10.74zm175.463 207.227c0 6.655-5.446 11.949-11.95 11.949-6.655 0-11.949-5.445-11.949-11.949 0-6.656 5.445-11.95 11.949-11.95 6.504-.151 11.95 5.294 11.95 11.95zm32.672 19.663c0 3.025-2.42 5.597-5.597 5.597-3.025 0-5.597-2.42-5.597-5.597 0-3.025 2.421-5.597 5.597-5.597 3.177 0 5.597 2.572 5.597 5.597zm58.689 3.781c0 3.026-2.42 5.597-5.596 5.597-3.026 0-5.597-2.42-5.597-5.597 0-3.025 2.42-5.596 5.597-5.596 3.025.151 5.596 2.571 5.596 5.596zm48.554 2.421c0 2.571-2.117 4.538-4.537 4.538-2.572 0-4.538-2.118-4.538-4.538 0-2.572 2.117-4.538 4.538-4.538 2.42-.151 4.537 1.966 4.537 4.538zm-104.521 36.302c0 3.025-2.42 5.597-5.596 5.597-3.025 0-5.597-2.421-5.597-5.597 0-3.025 2.42-5.597 5.597-5.597 3.176 0 5.596 2.42 5.596 5.597zm53.546 15.127c0 5.294-4.235 9.681-9.68 9.681-5.294 0-9.681-4.236-9.681-9.681 0-5.294 4.235-9.681 9.681-9.681 5.445.152 9.68 4.387 9.68 9.681zm-22.083 50.823c0 2.874-2.42 5.294-5.294 5.294-2.874 0-5.294-2.42-5.294-5.294 0-2.874 2.42-5.294 5.294-5.294 2.874 0 5.294 2.42 5.294 5.294zm29.344 20.572c0 2.874-2.42 5.294-5.294 5.294-2.874 0-5.294-2.42-5.294-5.294 0-2.874 2.42-5.294 5.294-5.294 2.874.151 5.294 2.42 5.294 5.294zM636.345 182.798c0 3.328-2.723 6.051-6.05 6.051-3.328 0-6.051-2.723-6.051-6.051 0-3.327 2.723-6.05 6.051-6.05 3.327 0 6.05 2.723 6.05 6.05zM855.371 65.723c0 3.328-2.722 6.05-6.05 6.05s-6.05-2.722-6.05-6.05c0-3.327 2.722-6.05 6.05-6.05 3.328-.151 6.05 2.571 6.05 6.05zm128.873 333.53c0 3.327-2.722 6.05-6.05 6.05s-6.05-2.723-6.05-6.05c0-3.328 2.722-6.051 6.05-6.051s6.05 2.723 6.05 6.051zm-60.957 22.688c0 3.328-2.722 6.05-6.05 6.05s-6.05-2.722-6.05-6.05 2.722-6.05 6.05-6.05 6.05 2.722 6.05 6.05zm-31.311-93.327c0 3.328-2.723 6.05-6.051 6.05-3.327 0-6.05-2.722-6.05-6.05s2.723-6.051 6.05-6.051c3.328 0 6.051 2.723 6.051 6.051zm-51.579 114.958a8.134 8.134 0 01-8.168 8.168 8.134 8.134 0 01-8.168-8.168 8.134 8.134 0 018.168-8.168 8.135 8.135 0 018.168 8.168zM465.119 205.941c0 2.269-1.966 4.236-4.235 4.236s-4.236-1.967-4.236-4.236c0-2.269 1.967-4.235 4.236-4.235 2.42 0 4.235 1.966 4.235 4.235zm21.177 19.362c0 2.269-1.967 4.235-4.236 4.235-2.268 0-4.235-1.966-4.235-4.235s1.967-4.236 4.235-4.236c2.269 0 4.236 1.967 4.236 4.236zm-21.177 17.848c0 2.269-1.966 4.236-4.235 4.236s-4.236-1.967-4.236-4.236c0-2.269 1.967-4.235 4.236-4.235 2.269 0 4.235 1.815 4.235 4.235zm48.555 22.236c0 2.269-1.967 4.235-4.236 4.235-2.268 0-4.235-1.966-4.235-4.235s1.815-4.236 4.235-4.236c2.421 0 4.236 1.815 4.236 4.236zm56.117-4.084c0 2.269-1.966 4.235-4.235 4.235s-4.236-1.966-4.236-4.235 1.815-4.236 4.236-4.236c2.269 0 4.235 1.816 4.235 4.236zm74.268 45.832c0 2.269-1.815 4.235-4.235 4.235-2.269 0-4.235-1.966-4.235-4.235s1.966-4.236 4.235-4.236 4.235 1.967 4.235 4.236zm-163.965-7.11c0 2.269-1.816 4.236-4.236 4.236-2.269 0-4.235-1.967-4.235-4.236 0-2.269 1.966-4.235 4.235-4.235 2.42 0 4.236 1.966 4.236 4.235zm-48.252 5.446c0 2.269-1.815 4.235-4.236 4.235-2.269 0-4.235-1.966-4.235-4.235s1.966-4.236 4.235-4.236c2.421 0 4.236 1.815 4.236 4.236zm45.68 34.487c0 2.269-1.966 4.235-4.235 4.235s-4.235-1.815-4.235-4.235c0-2.269 1.966-4.235 4.235-4.235 2.269.151 4.235 1.966 4.235 4.235zm-151.26-98.924c0 2.269-1.967 4.235-4.236 4.235-2.269 0-4.235-1.966-4.235-4.235s1.815-4.235 4.235-4.235c2.42 0 4.236 1.966 4.236 4.235zm20.722 58.235c0 2.269-1.966 4.236-4.235 4.236s-4.235-1.967-4.235-4.236c0-2.268 1.966-4.235 4.235-4.235 2.42 0 4.235 1.815 4.235 4.235zm-83.949-120.857a9.813 9.813 0 01-9.832 9.832 9.813 9.813 0 01-9.832-9.832 9.813 9.813 0 019.832-9.832 9.813 9.813 0 019.832 9.832zm1.966 75.025c0 2.269-1.967 4.236-4.235 4.236-2.269 0-4.236-1.815-4.236-4.236 0-2.268 1.967-4.235 4.236-4.235 2.42 0 4.235 1.815 4.235 4.235zm-41.747 0c0 2.269-1.967 4.236-4.236 4.236-2.268 0-4.235-1.815-4.235-4.236 0-2.268 1.967-4.235 4.235-4.235 2.269 0 4.236 1.815 4.236 4.235zm46.89 39.329c0 2.268-1.966 4.235-4.235 4.235s-4.235-1.815-4.235-4.235c0-2.269 1.815-4.236 4.235-4.236 2.42 0 4.235 1.967 4.235 4.236zm80.773-55.664c0 2.268-1.967 4.235-4.235 4.235-2.269 0-4.236-1.967-4.236-4.235 0-2.269 1.815-4.236 4.236-4.236 2.268 0 4.235 1.967 4.235 4.236zm-96.05-19.816c0 2.269-1.815 4.235-4.235 4.235-2.269 0-4.236-1.966-4.236-4.235s1.967-4.235 4.236-4.235c2.269 0 4.235 1.815 4.235 4.235zm121.765 57.479c0 2.269-1.967 4.235-4.236 4.235-2.268 0-4.235-1.966-4.235-4.235s1.967-4.236 4.235-4.236c2.421 0 4.236 1.815 4.236 4.236zm68.218-46.135c0 2.269-1.966 4.235-4.235 4.235s-4.235-1.966-4.235-4.235 1.966-4.235 4.235-4.235 4.235 1.815 4.235 4.235zm-53.244-74.873c0 2.269-1.815 4.235-4.235 4.235-2.269 0-4.235-1.815-4.235-4.235 0-2.269 1.966-4.236 4.235-4.236s4.235 1.816 4.235 4.236zm-32.673 5.142c0 2.269-1.966 4.236-4.235 4.236s-4.235-1.967-4.235-4.236c0-2.269 1.966-4.235 4.235-4.235s4.235 1.966 4.235 4.235zm34.186 110.874c0 2.269-1.966 4.236-4.235 4.236s-4.236-1.967-4.236-4.236c0-2.269 1.967-4.235 4.236-4.235 2.42 0 4.235 1.815 4.235 4.235zm6.354 31.916c0 2.269-1.967 4.236-4.236 4.236-2.269 0-4.235-1.815-4.235-4.236 0-2.269 1.966-4.235 4.235-4.235 2.42.151 4.236 1.966 4.236 4.235zm29.496-108.755c0 2.268-1.967 4.235-4.236 4.235-2.269 0-4.235-1.967-4.235-4.235 0-2.269 1.966-4.236 4.235-4.236 2.421 0 4.236 1.815 4.236 4.236zm-174.102 6.352c0 2.269-1.815 4.235-4.235 4.235-2.269 0-4.236-1.966-4.236-4.235s1.967-4.235 4.236-4.235c2.269 0 4.235 1.966 4.235 4.235zm-33.731-9.076c0 2.269-1.967 4.235-4.236 4.235-2.269 0-4.235-1.815-4.235-4.235 0-2.269 1.966-4.235 4.235-4.235 2.42 0 4.236 1.815 4.236 4.235zm36.756-48.554c0 2.269-1.815 4.235-4.235 4.235-2.269 0-4.235-1.966-4.235-4.235s1.966-4.235 4.235-4.235c2.42 0 4.235 1.966 4.235 4.235zm23.748 45.227c0 2.269-1.967 4.235-4.236 4.235-2.269 0-4.235-1.815-4.235-4.235 0-2.269 1.966-4.236 4.235-4.236 2.42 0 4.236 1.967 4.236 4.236zm49.463 32.672c0 4.992-3.933 8.925-8.925 8.925-4.991 0-8.924-3.933-8.924-8.925 0-4.991 3.933-8.924 8.924-8.924 4.841 0 8.925 4.084 8.925 8.924zm34.941-14.068c0 2.269-1.967 4.236-4.235 4.236-2.269 0-4.236-1.967-4.236-4.236 0-2.269 1.967-4.235 4.236-4.235 2.42 0 4.235 1.966 4.235 4.235zm-.152 21.48c0 2.269-1.966 4.235-4.235 4.235s-4.235-1.966-4.235-4.235 1.966-4.236 4.235-4.236 4.235 1.816 4.235 4.236zm-86.218.907c0 2.269-1.967 4.235-4.236 4.235-2.269 0-4.235-1.966-4.235-4.235s1.966-4.235 4.235-4.235 4.236 1.966 4.236 4.235zm47.495-52.185c0 2.269-1.967 4.236-4.235 4.236-2.269 0-4.236-1.815-4.236-4.236 0-2.269 1.967-4.235 4.236-4.235 2.42 0 4.235 1.815 4.235 4.235zm91.513 92.119c0 2.268-1.967 4.235-4.236 4.235-2.269 0-4.235-1.967-4.235-4.235 0-2.269 1.966-4.236 4.235-4.236s4.236 1.815 4.236 4.236zm114.201-27.531c0 2.269-1.967 4.236-4.236 4.236-2.269 0-4.235-1.967-4.235-4.236 0-2.269 1.966-4.235 4.235-4.235s4.236 1.815 4.236 4.235zm-9.377 92.421c0 2.269-1.967 4.235-4.236 4.235-2.268 0-4.235-1.966-4.235-4.235s1.815-4.235 4.235-4.235c2.269 0 4.236 1.815 4.236 4.235zm36-178.487c0 1.815-1.513 3.327-3.328 3.327s-3.327-1.512-3.327-3.327c0-1.816 1.512-3.328 3.327-3.328s3.328 1.361 3.328 3.328zm-44.773-75.177c0 1.815-1.513 3.328-3.328 3.328s-3.328-1.513-3.328-3.328 1.513-3.328 3.328-3.328 3.328 1.513 3.328 3.328zm112.538-25.865c0 1.815-1.513 3.327-3.328 3.327s-3.328-1.512-3.328-3.327c0-1.816 1.513-3.328 3.328-3.328s3.328 1.361 3.328 3.328zm102.403 23.748c0 1.815-1.513 3.327-3.328 3.327s-3.327-1.512-3.327-3.327c0-1.816 1.512-3.328 3.327-3.328s3.328 1.361 3.328 3.328zm78.807-20.874c0 1.815-1.513 3.327-3.328 3.327s-3.328-1.512-3.328-3.327c0-1.816 1.513-3.328 3.328-3.328s3.328 1.512 3.328 3.328zm-139.916-23.9c0 1.815-1.513 3.328-3.328 3.328s-3.328-1.513-3.328-3.328 1.513-3.328 3.328-3.328 3.328 1.513 3.328 3.328zm17.999 212.824c0 4.084-3.328 7.26-7.261 7.26-4.084 0-7.26-3.328-7.26-7.26 0-4.084 3.328-7.261 7.26-7.261 4.084 0 7.261 3.328 7.261 7.261zm-20.269-126.756c0 4.084-3.327 7.26-7.26 7.26-4.084 0-7.261-3.328-7.261-7.26 0-4.084 3.328-7.261 7.261-7.261 3.933 0 7.26 3.328 7.26 7.261zm105.429 8.016c0 4.084-3.328 7.261-7.26 7.261-4.084 0-7.261-3.328-7.261-7.261 0-4.084 3.328-7.26 7.261-7.26 3.932-.151 7.26 3.176 7.26 7.26zM584.313 88.714a7.26 7.26 0 100-14.521 7.26 7.26 0 000 14.521zm440.617 173.95a7.097 7.097 0 01-7.11 7.109 7.103 7.103 0 01-7.11-7.109 7.103 7.103 0 017.11-7.109c3.94 0 7.11 3.176 7.11 7.109zm-37.509 25.412c0 1.815-1.512 3.328-3.328 3.328-1.815 0-3.327-1.513-3.327-3.328s1.512-3.328 3.327-3.328c1.967 0 3.328 1.513 3.328 3.328zm26.319 35.848c0 1.816-1.51 3.328-3.33 3.328-1.81 0-3.32-1.512-3.32-3.328 0-1.815 1.51-3.327 3.32-3.327 1.82 0 3.33 1.512 3.33 3.327zm-71.848 161.395c0 4.689-3.781 8.622-8.622 8.622-4.689 0-8.622-3.933-8.622-8.622s3.933-8.622 8.622-8.622c4.841 0 8.622 3.933 8.622 8.622zM791.086 327.555a8.457 8.457 0 01-8.471 8.47 8.456 8.456 0 01-8.47-8.47 8.457 8.457 0 018.47-8.471 8.457 8.457 0 018.471 8.471zm-621.228 97.411c0 3.328-2.723 6.051-6.051 6.051-3.327 0-6.05-2.723-6.05-6.051 0-3.327 2.723-6.05 6.05-6.05 3.328 0 6.051 2.723 6.051 6.05zm217.967 412.638c0 4.235-3.479 7.714-7.714 7.714-4.236 0-7.715-3.479-7.715-7.714s3.479-7.714 7.715-7.714c4.235 0 7.714 3.479 7.714 7.714zm-43.261-451.058c0 3.327-2.723 6.05-6.051 6.05-3.327 0-6.05-2.723-6.05-6.05 0-3.328 2.723-6.051 6.05-6.051 3.328 0 6.051 2.723 6.051 6.051zm-31.159 69.58c0 3.327-2.723 6.05-6.051 6.05-3.328 0-6.05-2.723-6.05-6.05 0-3.328 2.722-6.051 6.05-6.051s6.051 2.723 6.051 6.051zm132.957 12.554c0 3.328-2.723 6.051-6.051 6.051-3.328 0-6.05-2.723-6.05-6.051 0-3.327 2.722-6.05 6.05-6.05s6.051 2.723 6.051 6.05zm-41.143 90.455c0 4.689-3.781 8.621-8.622 8.621-4.689 0-8.621-3.781-8.621-8.621 0-4.69 3.781-8.622 8.621-8.622 4.841 0 8.622 3.781 8.622 8.622zm-76.538-4.841c0 3.479-2.874 6.353-6.353 6.353-3.479 0-6.353-2.874-6.353-6.353 0-3.479 2.874-6.353 6.353-6.353 3.479-.151 6.353 2.723 6.353 6.353zm-8.017 31.462c0 2.723-2.118 4.841-4.84 4.841-2.723 0-4.841-2.118-4.841-4.841 0-2.722 2.118-4.84 4.841-4.84 2.722 0 4.84 2.118 4.84 4.84zm-28.436-55.815a5.423 5.423 0 01-5.446 5.445 5.422 5.422 0 01-5.445-5.445 5.423 5.423 0 015.445-5.446 5.423 5.423 0 015.446 5.446zm248.824 169.411c0 3.328-2.723 6.051-6.05 6.051-3.328 0-6.051-2.723-6.051-6.051 0-3.328 2.723-6.05 6.051-6.05 3.327 0 6.05 2.722 6.05 6.05zM259.556 372.781c0 2.269-1.967 4.235-4.236 4.235-2.269 0-4.235-1.966-4.235-4.235s1.966-4.235 4.235-4.235c2.42 0 4.236 1.966 4.236 4.235zm315.225 21.63c0 2.269-1.966 4.235-4.235 4.235s-4.235-1.815-4.235-4.235c0-2.269 1.966-4.235 4.235-4.235s4.235 1.966 4.235 4.235zm-170.469 275.9c0 2.268-1.815 4.235-4.235 4.235-2.269 0-4.235-1.967-4.235-4.235 0-2.269 1.966-4.236 4.235-4.236 2.42 0 4.235 1.967 4.235 4.236zm210.403-266.37c0 1.815-1.513 3.328-3.328 3.328s-3.327-1.513-3.327-3.328 1.512-3.328 3.327-3.328 3.328 1.513 3.328 3.328zm-25.411 56.421c0 1.815-1.513 3.328-3.328 3.328s-3.328-1.513-3.328-3.328 1.513-3.328 3.328-3.328 3.328 1.513 3.328 3.328z" fill="#BD344B"/><path opacity=".3" d="M290.789 247.311l26.017-27.983-53.849-69.883 27.832 97.866z" fill="#012783"/><path opacity=".2" d="M177.344 219.025l-5.446 86.673 145.513-31.916-140.067-54.757z" fill="#012783"/><path opacity=".1" d="M105.948 176.067l157.009-26.622-27.53 48.857-129.479-22.235zm146.572 147.48L55.428 296.622l194.218-34.033 2.874 60.958z" fill="#012783"/><path opacity=".3" d="M132.721 331.563l-18.756 30.101 39.025-1.966-20.269-28.135z" fill="#012783"/><path opacity=".5" d="M219.394 345.782l-24.958-21.328 19.21 60.051 5.748-38.723z" fill="#012783"/><path opacity=".2" d="M403.629 158.975l57.479-38.723 18.605 31.311-76.084 7.412z" fill="#012783"/><path opacity=".3" d="M408.62 90.454l-85.462 10.437 49.765 2.118 35.697-12.555z" fill="#082440"/><path opacity=".4" d="M82.957 243.076l34.034 64.437-11.042-132.353-22.992 67.916z" fill="#012D98"/><path opacity=".3" d="M73.427 137.496l57.933 11.95-113.748 9.983 55.815-21.933zm68.975 291.327l-7.109-30.252-33.731 11.647 40.84 18.605z" fill="#012D98"/><path opacity=".2" d="M172.05 305.396l-90.303 84.857 47.496-129.025 42.807 44.168zM337.377 579.48l-79.26-92.572L230.134 599.9l107.243-20.42z" fill="#012783"/><path opacity=".4" d="M378.217 591.58l-40.84-12.101 9.832 39.933 31.008-27.832z" fill="#012783"/><path opacity=".3" d="M282.47 799.412l27.529-178.79 24.958 6.353-52.487 172.437z" fill="#012783"/><path opacity=".5" d="M397.729 607.917l4.387-61.261 13.613 25.11-18 36.151z" fill="#012783"/><path opacity=".4" d="M223.932 474.051l34.185 12.857-10.286-34.638-23.899 21.781z" fill="#012783"/><path opacity=".3" d="M567.898 369.379l37.21 62.017-104.521-23.899 67.311-38.118z" fill="#012783"/><path opacity=".5" d="M671.663 507.631l-66.555-76.236 23.143-51.428 43.412 127.664z" fill="#012783"/><path opacity=".1" d="M763.024 339.277l38.118 46.135-172.891-5.446 134.773-40.689z" fill="#012D98"/><path opacity=".2" d="M675.142 589.312l-3.479-81.681 101.042 104.672-97.563-22.991z" fill="#012783"/><path opacity=".3" d="M660.167 713.345l14.975-124.034-46.891-209.344 31.916 333.378z" fill="#012D98"/><path opacity=".4" d="M786.167 504.606l-65.798-37.21 15.277 51.126 50.521-13.916z" fill="#012D98"/><path opacity=".3" d="M705.394 440.32l-33.731 67.311 140.975-73.513-107.244 6.202zm107.243-6.202l17.698-41.748-29.193-6.958 11.495 48.706z" fill="#012783"/><path opacity=".3" d="M671.965 508.387l32.672-68.068 16.941 114.051-49.613-45.983zM499.528 407.95l129.479-28.437-66.252 85.462-63.227-57.025zm243.983-184.841l-147.63 17.698 20.874 31.008 126.756-48.706z" fill="#012D98"/><path opacity=".5" d="M684.974 290.874L664.1 258.051l55.815-12.404-34.941 45.227z" fill="#012783"/><path opacity=".3" d="M845.461 228.404l-101.042-6.202 137.345 52.336-36.303-46.134z" fill="#012783"/><path opacity=".2" d="M943.326 245.496l-97.865-17.093 162.909-87.126-65.044 104.219z" fill="#012783"/><path opacity=".4" d="M872.083 378.303l9.681-103.765-90.908-67.916 81.227 171.681zM616.301 272.27l-26.773 6.655-15.428 31.008 42.201-37.663z" fill="#012D98"/><path opacity=".3" d="M711.898 174.252l-71.092 36.756 52.185 24.807 18.907-61.563z" fill="#012783"/><path opacity=".4" d="M790.856 206.622l-47.798 15.126 26.621 49.16 21.177-64.286z" fill="#012783"/><path opacity=".4" d="M980.234 277.109l98.316 24.958-20.42 103.614-77.896-128.572z" fill="#012D98"/><path opacity=".3" d="M1015.93 219.025l18.3 115.715 12.41-66.404-30.71-49.311z" fill="#012783"/><path opacity=".4" d="M1156.3 257.445l27.53 70.034-36 22.235 8.47-92.269z" fill="#012783"/><path opacity=".4" d="M1160.99 148.689l-66.4-8.924 60.2 39.932 6.2-31.008z" fill="#012D98"/><path opacity=".4" d="M1197.44 241.714l16.79-77.143-39.02 15.126 22.23 62.017z" fill="#012783"/><path opacity=".3" d="M1156.6 179.698l-367.862 27.378 57.631 21.328 310.231-48.706z" fill="#012D98"/><path opacity=".4" d="M871.629 376.034l-19.059-55.361 91.21-76.235-72.151 131.596z" fill="#012783"/><path opacity=".4" d="M940.302 433.21l8.017 53.244-20.421-14.219 12.404-39.025z" fill="#012D98"/><path opacity=".3" d="M872.839 377.396l69.126 58.084 3.176-41.295-72.302-16.789z" fill="#012783"/><path opacity=".5" d="M1069.78 451.816L995.209 419.9l40.691-81.53 33.88 113.446z" fill="#012783"/><path opacity=".4" d="M1023.65 481.916l22.08 28.437 24.05-57.176-46.13 28.739z" fill="#012D98"/><path opacity=".5" d="M1066.15 557.244l19.21-20.269-39.18-27.076 19.97 47.345z" fill="#012D98"/><path opacity=".3" d="M1191.24 527.899l-44.01-14.067 66.55 52.639-22.54-38.572z" fill="#012783"/><path opacity=".4" d="M1091.86 672.504l59.9-67.159-14.97 53.395-44.93 13.764z" fill="#012783"/><path opacity=".5" d="M1256.74 667.664l-104.98-62.319 25.42 32.218 79.56 30.101z" fill="#012D98"/><path opacity=".3" d="M1137.24 657.832l89.7 57.479-13.16-49.765-76.54-7.714z" fill="#012783"/><path opacity=".6" d="M1241.46 629.698l-27.53 31.311 13.01 54.303 14.52-85.614z" fill="#012783"/><path opacity=".3" d="M1312.25 753.883l11.19-41.9 16.64 18.605-27.83 23.295z" fill="#012783"/><path opacity=".2" d="M881.764 274.538l98.47 3.479 28.136-136.74-126.606 133.261z" fill="#012D98"/><path opacity=".4" d="M743.512 222.202l-21.782-20.42 90.908-48.706-69.126 69.126z" fill="#012783"/><path opacity=".3" d="M618.722 338.37l43.109 16.639-33.882 25.26-9.227-41.899z" fill="#012783"/></svg>